<?xml version="1.0" encoding="UTF-8" standalone="no"?>
<!-- Created with Inkscape (http://www.inkscape.org/) -->

<svg
   xmlns:dc="http://purl.org/dc/elements/1.1/"
   xmlns:cc="http://creativecommons.org/ns#"
   xmlns:rdf="http://www.w3.org/1999/02/22-rdf-syntax-ns#"
   xmlns:svg="http://www.w3.org/2000/svg"
   xmlns="http://www.w3.org/2000/svg"
   xmlns:sodipodi="http://sodipodi.sourceforge.net/DTD/sodipodi-0.dtd"
   xmlns:inkscape="http://www.inkscape.org/namespaces/inkscape"
   width="342.22mm"
   height="215.47185mm"
   viewBox="0 0 342.22 215.47185"
   version="1.1"
   id="svg1719"
   inkscape:version="0.92.5 (2060ec1f9f, 2020-04-08)"
   sodipodi:docname="card-front-embossing.svg">
  <defs
     id="defs1713" />
  <sodipodi:namedview
     id="base"
     pagecolor="#ffffff"
     bordercolor="#666666"
     borderopacity="1.0"
     inkscape:pageopacity="0"
     inkscape:pageshadow="2"
     inkscape:zoom="1.0572437"
     inkscape:cx="646.71496"
     inkscape:cy="407.19089"
     inkscape:document-units="mm"
     inkscape:current-layer="layer1"
     showgrid="false"
     fit-margin-top="0"
     fit-margin-left="0"
     fit-margin-right="0"
     fit-margin-bottom="0"
     showborder="false"
     inkscape:window-width="1920"
     inkscape:window-height="1024"
     inkscape:window-x="0"
     inkscape:window-y="32"
     inkscape:window-maximized="1"
     showguides="true"
     inkscape:guide-bbox="true" />
  <metadata
     id="metadata1716">
    <rdf:RDF>
      <cc:Work
         rdf:about="">
        <dc:format>image/svg+xml</dc:format>
        <dc:type
           rdf:resource="http://purl.org/dc/dcmitype/StillImage" />
        <dc:title></dc:title>
      </cc:Work>
    </rdf:RDF>
  </metadata>
  <g
     inkscape:label="Layer 1"
     inkscape:groupmode="layer"
     id="layer1"
     transform="translate(-101.24091,-30.30538)">
    <rect
       style="opacity:1;fill:#d0d0ce;fill-opacity:1;stroke:none;stroke-width:31.93857765;stroke-miterlimit:4;stroke-dasharray:none;stroke-opacity:1"
       id="rect874-9-9-0-4-4-6-3-2-7"
       width="342.22"
       height="215.47185"
       x="101.24091"
       y="30.30538" />
    <g
       aria-label="FEDERAL SECURITY BANK"
       style="font-style:normal;font-variant:normal;font-weight:normal;font-stretch:normal;font-size:16.20515823px;line-height:1.25;font-family:Montserrat;-inkscape-font-specification:Montserrat;letter-spacing:0px;word-spacing:4.16402102px;opacity:1;fill:#003057;fill-opacity:1;stroke:none;stroke-width:0.41800183"
       id="text2489-8-6">
      <path
         d="m 158.6807,125.49637 v 1.94462 h 4.7319 v 2.88451 h -4.7319 v 3.62996 h -3.82442 v -11.34361 h 9.22074 v 2.88452 z"
         style="font-style:normal;font-variant:normal;font-weight:900;font-stretch:normal;font-size:16.20515823px;font-family:Montserrat;-inkscape-font-specification:'Montserrat Heavy';word-spacing:4.16402102px;fill:#003057;fill-opacity:1;stroke-width:0.41800183"
         id="path14800" />
      <path
         d="m 174.72379,131.07094 v 2.88452 h -9.4314 v -11.34361 h 9.22073 v 2.88452 h -5.46113 v 1.32882 h 4.79672 v 2.75488 h -4.79672 v 1.49087 z"
         style="font-style:normal;font-variant:normal;font-weight:900;font-stretch:normal;font-size:16.20515823px;font-family:Montserrat;-inkscape-font-specification:'Montserrat Heavy';word-spacing:4.16402102px;fill:#003057;fill-opacity:1;stroke-width:0.41800183"
         id="path14802" />
      <path
         d="m 176.19843,122.61185 h 5.59078 q 1.89601,0 3.33827,0.69682 1.45846,0.68062 2.25251,1.96082 0.81026,1.28021 0.81026,3.01416 0,1.73396 -0.81026,3.01416 -0.79405,1.28021 -2.25251,1.97703 -1.44226,0.68062 -3.33827,0.68062 h -5.59078 z m 5.42873,8.36186 q 1.23159,0 1.96083,-0.69682 0.74543,-0.71303 0.74543,-1.99324 0,-1.2802 -0.74543,-1.97703 -0.72924,-0.71302 -1.96083,-0.71302 h -1.60431 v 5.38011 z"
         style="font-style:normal;font-variant:normal;font-weight:900;font-stretch:normal;font-size:16.20515823px;font-family:Montserrat;-inkscape-font-specification:'Montserrat Heavy';word-spacing:4.16402102px;fill:#003057;fill-opacity:1;stroke-width:0.41800183"
         id="path14804" />
      <path
         d="m 199.01527,131.07094 v 2.88452 h -9.4314 v -11.34361 h 9.22073 v 2.88452 h -5.46114 v 1.32882 h 4.79673 v 2.75488 h -4.79673 v 1.49087 z"
         style="font-style:normal;font-variant:normal;font-weight:900;font-stretch:normal;font-size:16.20515823px;font-family:Montserrat;-inkscape-font-specification:'Montserrat Heavy';word-spacing:4.16402102px;fill:#003057;fill-opacity:1;stroke-width:0.41800183"
         id="path14806" />
      <path
         d="m 205.35146,131.10335 h -1.03713 v 2.85211 h -3.82442 v -11.34361 h 5.46114 q 1.5719,0 2.73867,0.51856 1.16677,0.51857 1.79878,1.49088 0.632,0.97231 0.632,2.26872 0,1.21539 -0.55098,2.12288 -0.55097,0.90749 -1.5881,1.44226 l 2.38215,3.50031 h -4.0837 z m 1.91221,-4.21334 q 0,-0.632 -0.38892,-0.97231 -0.38893,-0.35651 -1.16678,-0.35651 h -1.39364 v 2.65764 h 1.39364 q 0.77785,0 1.16678,-0.3403 0.38892,-0.35652 0.38892,-0.98852 z"
         style="font-style:normal;font-variant:normal;font-weight:900;font-stretch:normal;font-size:16.20515823px;font-family:Montserrat;-inkscape-font-specification:'Montserrat Heavy';word-spacing:4.16402102px;fill:#003057;fill-opacity:1;stroke-width:0.41800183"
         id="path14808" />
      <path
         d="m 220.2926,131.97843 h -4.31057 l -0.76164,1.97703 h -3.88924 l 4.95878,-11.34361 h 3.75959 l 4.95878,11.34361 h -3.95406 z m -1.05334,-2.75488 -1.10195,-2.8521 -1.10195,2.8521 z"
         style="font-style:normal;font-variant:normal;font-weight:900;font-stretch:normal;font-size:16.20515823px;font-family:Montserrat;-inkscape-font-specification:'Montserrat Heavy';word-spacing:4.16402102px;fill:#003057;fill-opacity:1;stroke-width:0.41800183"
         id="path14810" />
      <path
         d="m 225.6241,122.61185 h 3.82441 v 8.37807 h 5.12083 v 2.96554 h -8.94524 z"
         style="font-style:normal;font-variant:normal;font-weight:900;font-stretch:normal;font-size:16.20515823px;font-family:Montserrat;-inkscape-font-specification:'Montserrat Heavy';word-spacing:4.16402102px;fill:#003057;fill-opacity:1;stroke-width:0.41800183"
         id="path14812" />
      <path
         d="m 248.87776,134.21474 q -1.40985,0 -2.75488,-0.3079 -1.32882,-0.3241 -2.1877,-0.85887 l 1.2316,-2.78729 q 0.81025,0.46995 1.81497,0.76165 1.00472,0.27548 1.92842,0.27548 0.79405,0 1.13436,-0.14584 0.34031,-0.16205 0.34031,-0.46995 0,-0.35652 -0.45375,-0.53477 -0.43754,-0.17826 -1.45846,-0.38893 -1.31262,-0.27548 -2.1877,-0.58338 -0.87508,-0.32411 -1.52328,-1.03713 -0.64821,-0.72923 -0.64821,-1.96083 0,-1.06954 0.59959,-1.94462 0.59959,-0.87507 1.78257,-1.37743 1.19918,-0.50236 2.90072,-0.50236 1.16677,0 2.28493,0.25928 1.13436,0.24308 1.99323,0.72923 l -1.15056,2.77108 q -1.66913,-0.84267 -3.16001,-0.84267 -1.47467,0 -1.47467,0.71303 0,0.34031 0.43754,0.51857 0.43754,0.16205 1.44226,0.35651 1.29641,0.24308 2.1877,0.56718 0.89128,0.3079 1.53949,1.02093 0.66441,0.71302 0.66441,1.94461 0,1.06955 -0.59959,1.94462 -0.59959,0.85888 -1.79877,1.37744 -1.18298,0.50236 -2.88452,0.50236 z"
         style="font-style:normal;font-variant:normal;font-weight:900;font-stretch:normal;font-size:16.20515823px;font-family:Montserrat;-inkscape-font-specification:'Montserrat Heavy';word-spacing:4.16402102px;fill:#003057;fill-opacity:1;stroke-width:0.41800183"
         id="path14814" />
      <path
         d="m 264.7264,131.07094 v 2.88452 h -9.43141 v -11.34361 h 9.22074 v 2.88452 h -5.46114 v 1.32882 h 4.79673 v 2.75488 h -4.79673 v 1.49087 z"
         style="font-style:normal;font-variant:normal;font-weight:900;font-stretch:normal;font-size:16.20515823px;font-family:Montserrat;-inkscape-font-specification:'Montserrat Heavy';word-spacing:4.16402102px;fill:#003057;fill-opacity:1;stroke-width:0.41800183"
         id="path14816" />
      <path
         d="m 272.06731,134.21474 q -1.79878,0 -3.24104,-0.74544 -1.44226,-0.76164 -2.26872,-2.10667 -0.81026,-1.36123 -0.81026,-3.07898 0,-1.71774 0.81026,-3.06277 0.82646,-1.36123 2.26872,-2.10667 1.44226,-0.76164 3.24104,-0.76164 1.65292,0 2.94933,0.58338 1.29642,0.58339 2.13908,1.68534 l -2.41456,2.15528 q -1.05334,-1.32882 -2.47939,-1.32882 -1.19918,0 -1.92842,0.77785 -0.72923,0.76164 -0.72923,2.05805 0,1.29642 0.72923,2.07426 0.72924,0.76165 1.92842,0.76165 1.42605,0 2.47939,-1.32883 l 2.41456,2.15529 q -0.84266,1.10195 -2.13908,1.68534 -1.29641,0.58338 -2.94933,0.58338 z"
         style="font-style:normal;font-variant:normal;font-weight:900;font-stretch:normal;font-size:16.20515823px;font-family:Montserrat;-inkscape-font-specification:'Montserrat Heavy';word-spacing:4.16402102px;fill:#003057;fill-opacity:1;stroke-width:0.41800183"
         id="path14818" />
      <path
         d="m 283.52434,134.21474 q -2.60903,0 -4.06749,-1.40985 -1.45847,-1.40985 -1.45847,-3.95406 v -6.23898 h 3.82442 v 6.12555 q 0,1.2478 0.43754,1.81498 0.45374,0.56718 1.29641,0.56718 0.84267,0 1.28021,-0.56718 0.45375,-0.56718 0.45375,-1.81498 v -6.12555 h 3.75959 v 6.23898 q 0,2.54421 -1.45846,3.95406 -1.45847,1.40985 -4.0675,1.40985 z"
         style="font-style:normal;font-variant:normal;font-weight:900;font-stretch:normal;font-size:16.20515823px;font-family:Montserrat;-inkscape-font-specification:'Montserrat Heavy';word-spacing:4.16402102px;fill:#003057;fill-opacity:1;stroke-width:0.41800183"
         id="path14820" />
      <path
         d="m 295.66198,131.10335 h -1.03713 v 2.85211 h -3.82442 v -11.34361 h 5.46114 q 1.5719,0 2.73867,0.51856 1.16677,0.51857 1.79878,1.49088 0.632,0.97231 0.632,2.26872 0,1.21539 -0.55098,2.12288 -0.55097,0.90749 -1.5881,1.44226 l 2.38215,3.50031 h -4.0837 z m 1.91221,-4.21334 q 0,-0.632 -0.38892,-0.97231 -0.38893,-0.35651 -1.16678,-0.35651 h -1.39364 v 2.65764 h 1.39364 q 0.77785,0 1.16678,-0.3403 0.38892,-0.35652 0.38892,-0.98852 z"
         style="font-style:normal;font-variant:normal;font-weight:900;font-stretch:normal;font-size:16.20515823px;font-family:Montserrat;-inkscape-font-specification:'Montserrat Heavy';word-spacing:4.16402102px;fill:#003057;fill-opacity:1;stroke-width:0.41800183"
         id="path14822" />
      <path
         d="m 302.87326,122.61185 h 3.82442 v 11.34361 h -3.82442 z"
         style="font-style:normal;font-variant:normal;font-weight:900;font-stretch:normal;font-size:16.20515823px;font-family:Montserrat;-inkscape-font-specification:'Montserrat Heavy';word-spacing:4.16402102px;fill:#003057;fill-opacity:1;stroke-width:0.41800183"
         id="path14824" />
      <path
         d="m 311.00822,125.57739 h -3.32206 v -2.96554 h 10.46853 v 2.96554 h -3.32206 v 8.37807 h -3.82441 z"
         style="font-style:normal;font-variant:normal;font-weight:900;font-stretch:normal;font-size:16.20515823px;font-family:Montserrat;-inkscape-font-specification:'Montserrat Heavy';word-spacing:4.16402102px;fill:#003057;fill-opacity:1;stroke-width:0.41800183"
         id="path14826" />
      <path
         d="m 325.56044,129.83935 v 4.11611 h -3.82442 v -4.16473 l -4.27816,-7.17888 h 4.03509 l 2.31733,3.92165 2.33355,-3.92165 h 3.69477 z"
         style="font-style:normal;font-variant:normal;font-weight:900;font-stretch:normal;font-size:16.20515823px;font-family:Montserrat;-inkscape-font-specification:'Montserrat Heavy';word-spacing:4.16402102px;fill:#003057;fill-opacity:1;stroke-width:0.41800183"
         id="path14828" />
      <path
         d="m 348.42519,128.02437 q 1.00472,0.37272 1.55569,1.08575 0.55098,0.71302 0.55098,1.71774 0,1.49088 -1.23159,2.31734 -1.2316,0.81026 -3.56514,0.81026 h -6.38483 v -11.34361 h 6.06073 q 2.26872,0 3.41929,0.81026 1.16677,0.81025 1.16677,2.15528 0,0.79406 -0.40513,1.42606 -0.38892,0.632 -1.16677,1.02092 z m -5.31529,-2.73867 v 1.68534 h 1.78256 q 1.2478,0 1.2478,-0.84267 0,-0.84267 -1.2478,-0.84267 z m 2.30113,5.99591 q 1.264,0 1.264,-0.89129 0,-0.89128 -1.264,-0.89128 h -2.30113 v 1.78257 z"
         style="font-style:normal;font-variant:normal;font-weight:900;font-stretch:normal;font-size:16.20515823px;font-family:Montserrat;-inkscape-font-specification:'Montserrat Heavy';word-spacing:4.16402102px;fill:#003057;fill-opacity:1;stroke-width:0.41800183"
         id="path14830" />
      <path
         d="m 359.60673,131.97843 h -4.31058 l -0.76164,1.97703 h -3.88924 l 4.95878,-11.34361 h 3.7596 l 4.95878,11.34361 h -3.95406 z m -1.05334,-2.75488 -1.10195,-2.8521 -1.10195,2.8521 z"
         style="font-style:normal;font-variant:normal;font-weight:900;font-stretch:normal;font-size:16.20515823px;font-family:Montserrat;-inkscape-font-specification:'Montserrat Heavy';word-spacing:4.16402102px;fill:#003057;fill-opacity:1;stroke-width:0.41800183"
         id="path14832" />
      <path
         d="m 376.11978,122.61185 v 11.34361 h -3.1438 l -4.31057,-5.15324 v 5.15324 h -3.72719 v -11.34361 h 3.1438 l 4.31057,5.15324 v -5.15324 z"
         style="font-style:normal;font-variant:normal;font-weight:900;font-stretch:normal;font-size:16.20515823px;font-family:Montserrat;-inkscape-font-specification:'Montserrat Heavy';word-spacing:4.16402102px;fill:#003057;fill-opacity:1;stroke-width:0.41800183"
         id="path14834" />
      <path
         d="m 382.58562,130.19586 -0.85887,0.95611 v 2.80349 h -3.7596 v -11.34361 h 3.7596 v 4.11611 l 3.72718,-4.11611 h 4.16473 l -4.53744,4.99119 4.76431,6.35242 h -4.42401 z"
         style="font-style:normal;font-variant:normal;font-weight:900;font-stretch:normal;font-size:16.20515823px;font-family:Montserrat;-inkscape-font-specification:'Montserrat Heavy';word-spacing:4.16402102px;fill:#003057;fill-opacity:1;stroke-width:0.41800183"
         id="path14836" />
    </g>
    <g
       id="g9536"
       style="opacity:1"
       transform="translate(174.57951,54.140061)">
      <path
         id="rect3573-7"
         d="M 132.80679,-7.9338093 V -2.9335967 47.280393 L 166.73135,8.8842877 v 8.7663893 l -33.92456,38.396621 v 1.365293 4.999693 h 4.9997 21.30568 21.30568 c 2.77,0 4.9997,-2.229694 4.9997,-4.999693 V 29.238083 a 5,5 0 0 0 -4.9997,-4.999694 5,5 0 0 0 4.9997,-5.000212 V -2.9335967 c 0,-2.7699996 -2.2297,-5.0002126 -4.9997,-5.0002126 h -21.30568 -21.30568 z"
         style="opacity:1;fill:#003057;fill-opacity:1;stroke:none;stroke-width:1;stroke-miterlimit:4;stroke-dasharray:none;stroke-opacity:1"
         inkscape:connector-curvature="0" />
      <path
         id="rect1183-4-0"
         d="m 76.080698,-7.9336293 c -2.55667,0 -4.61516,2.2412313 -4.61516,5.024905 V 36.529058 L 124.07617,6.0720577 v -8.980782 c 0,-2.7836737 -2.05844,-5.024905 -4.61511,-5.024905 z M 124.07617,14.815372 71.465538,45.272851 v 12.114887 c 0,2.783714 2.05849,5.024425 4.61516,5.024425 h 43.380362 c 2.55667,0 4.61511,-2.240711 4.61511,-5.024425 z"
         style="opacity:1;fill:#003057;fill-opacity:1;stroke:none;stroke-width:1.92619157;stroke-miterlimit:4;stroke-dasharray:none;stroke-opacity:1"
         inkscape:connector-curvature="0"
         sodipodi:nodetypes="ssccsssccssssc" />
      <path
         sodipodi:nodetypes="ssccsssccssccssccccccc"
         inkscape:connector-curvature="0"
         id="rect2497-0-6-8-9-1"
         d="m 14.119438,-7.9337363 c -2.21285,0 -3.99418,1.7811969 -3.99418,3.994183 V 31.141112 L 62.734908,9.4156647 v -13.355218 c 0,-2.2129861 -1.78113,-3.994183 -3.99419,-3.994183 z m 48.61547,26.0849873 -52.60965,21.725447 v 18.540426 c 0,2.212913 1.78133,3.994183 3.99418,3.994183 h 5.93035 3.64743 5.5857 c 2.21285,0 3.99419,-1.781228 3.99419,-3.994183 v -6.929436 -2.167383 -8.756237 l 27.30487,-11.27659 v 0 c 1.25407,-0.562776 2.13623,-2.015998 2.13623,-3.122729 z"
         style="opacity:1;fill:#003057;fill-opacity:1;stroke:none;stroke-width:3.99449301;stroke-miterlimit:4;stroke-dasharray:none;stroke-opacity:1" />
    </g>
    <g
       transform="translate(174.57951,54.140061)"
       id="g9576"
       style="opacity:1">
      <g
         aria-label="VALID THRU "
         style="font-style:normal;font-variant:normal;font-weight:bold;font-stretch:normal;font-size:10.58333302px;line-height:1.25;font-family:'Liberation Sans';-inkscape-font-specification:'Liberation Sans Bold';letter-spacing:0px;word-spacing:0px;opacity:1;fill:#003057;fill-opacity:1;stroke:none;stroke-width:0.21100345"
         id="text1513-3-4-7-6-3-1">
        <path
           d="m 140.25578,133.70557 h -1.54512 l -2.69234,-7.28121 h 1.59163 l 1.49862,4.67671 q 0.13952,0.45476 0.3824,1.3746 l 0.10852,-0.44442 0.26355,-0.93018 1.49345,-4.67671 h 1.57613 z"
           style="font-style:normal;font-variant:normal;font-weight:bold;font-stretch:normal;font-size:10.58333302px;font-family:'Liberation Sans';-inkscape-font-specification:'Liberation Sans Bold';fill:#003057;fill-opacity:1;stroke-width:0.21100345"
           id="path14714" />
        <path
           d="m 148.07443,133.70557 -0.64596,-1.86036 h -2.77502 l -0.64596,1.86036 h -1.52445 l 2.65617,-7.28121 h 1.79834 l 2.64583,7.28121 z m -2.03605,-6.15983 -0.031,0.11368 q -0.0517,0.18604 -0.12402,0.42375 -0.0724,0.23771 -0.88884,2.61483 h 2.0929 l -0.71831,-2.0929 -0.2222,-0.7028 z"
           style="font-style:normal;font-variant:normal;font-weight:bold;font-stretch:normal;font-size:10.58333302px;font-family:'Liberation Sans';-inkscape-font-specification:'Liberation Sans Bold';fill:#003057;fill-opacity:1;stroke-width:0.21100345"
           id="path14716" />
        <path
           d="m 150.5704,133.70557 v -7.28121 h 1.52445 v 6.10298 h 3.90674 v 1.17823 z"
           style="font-style:normal;font-variant:normal;font-weight:bold;font-stretch:normal;font-size:10.58333302px;font-family:'Liberation Sans';-inkscape-font-specification:'Liberation Sans Bold';fill:#003057;fill-opacity:1;stroke-width:0.21100345"
           id="path14718" />
        <path
           d="m 157.03512,133.70557 v -7.28121 h 1.52445 v 7.28121 z"
           style="font-style:normal;font-variant:normal;font-weight:bold;font-stretch:normal;font-size:10.58333302px;font-family:'Liberation Sans';-inkscape-font-specification:'Liberation Sans Bold';fill:#003057;fill-opacity:1;stroke-width:0.21100345"
           id="path14720" />
        <path
           d="m 166.46607,130.0107 q 0,1.12655 -0.44442,1.96887 -0.43925,0.83716 -1.25057,1.28158 -0.80615,0.44442 -1.85001,0.44442 h -2.94556 v -7.28121 h 2.6355 q 1.83968,0 2.84737,0.93017 1.00769,0.92501 1.00769,2.65617 z m -1.53479,0 q 0,-1.17305 -0.60978,-1.788 -0.60979,-0.62012 -1.7415,-0.62012 h -1.08004 v 4.92476 h 1.29191 q 0.98186,0 1.56063,-0.67696 0.57878,-0.67696 0.57878,-1.83968 z"
           style="font-style:normal;font-variant:normal;font-weight:bold;font-stretch:normal;font-size:10.58333302px;font-family:'Liberation Sans';-inkscape-font-specification:'Liberation Sans Bold';fill:#003057;fill-opacity:1;stroke-width:0.21100345"
           id="path14722" />
        <path
           d="m 173.84546,127.60258 v 6.10299 h -1.52445 v -6.10299 h -2.35128 v -1.17822 h 6.23218 v 1.17822 z"
           style="font-style:normal;font-variant:normal;font-weight:bold;font-stretch:normal;font-size:10.58333302px;font-family:'Liberation Sans';-inkscape-font-specification:'Liberation Sans Bold';fill:#003057;fill-opacity:1;stroke-width:0.21100345"
           id="path14724" />
        <path
           d="m 181.72095,133.70557 v -3.12126 h -3.17293 v 3.12126 h -1.52446 v -7.28121 h 1.52446 v 2.89905 h 3.17293 v -2.89905 h 1.52446 v 7.28121 z"
           style="font-style:normal;font-variant:normal;font-weight:bold;font-stretch:normal;font-size:10.58333302px;font-family:'Liberation Sans';-inkscape-font-specification:'Liberation Sans Bold';fill:#003057;fill-opacity:1;stroke-width:0.21100345"
           id="path14726" />
        <path
           d="m 189.66879,133.70557 -1.68982,-2.76469 h -1.78801 v 2.76469 h -1.52445 v -7.28121 h 3.63802 q 1.30225,0 2.01021,0.56327 0.70797,0.55811 0.70797,1.60714 0,0.76481 -0.43408,1.32291 -0.43408,0.55294 -1.17306,0.72864 l 1.96887,3.05925 z m -0.18087,-5.04879 q 0,-1.04903 -1.34359,-1.04903 h -1.95337 v 2.14974 h 1.99471 q 0.64079,0 0.97152,-0.28939 0.33073,-0.28939 0.33073,-0.81132 z"
           style="font-style:normal;font-variant:normal;font-weight:bold;font-stretch:normal;font-size:10.58333302px;font-family:'Liberation Sans';-inkscape-font-specification:'Liberation Sans Bold';fill:#003057;fill-opacity:1;stroke-width:0.21100345"
           id="path14728" />
        <path
           d="m 195.33769,133.80892 q -1.50378,0 -2.30477,-0.73381 -0.79581,-0.7338 -0.79581,-2.09806 v -4.55269 h 1.52445 v 4.43384 q 0,0.86299 0.40824,1.31258 0.41342,0.44441 1.20923,0.44441 0.81649,0 1.25574,-0.46508 0.43925,-0.47026 0.43925,-1.34359 v -4.38216 h 1.52445 v 4.47518 q 0,1.38492 -0.85782,2.14974 -0.85266,0.75964 -2.40296,0.75964 z"
           style="font-style:normal;font-variant:normal;font-weight:bold;font-stretch:normal;font-size:10.58333302px;font-family:'Liberation Sans';-inkscape-font-specification:'Liberation Sans Bold';fill:#003057;fill-opacity:1;stroke-width:0.21100345"
           id="path14730" />
      </g>
      <g
         aria-label="VALID FROM"
         style="font-style:normal;font-variant:normal;font-weight:bold;font-stretch:normal;font-size:9.87777805px;line-height:1.25;font-family:'Liberation Sans';-inkscape-font-specification:'Liberation Sans Bold';letter-spacing:0px;word-spacing:0px;opacity:1;fill:#003057;fill-opacity:1;stroke:none;stroke-width:0.21100345"
         id="text1513-5-5-5-4-3">
        <path
           d="m -11.410247,133.75983 h -1.545125 l -2.692342,-7.28121 h 1.591634 l 1.498616,4.67671 q 0.139527,0.45476 0.382406,1.3746 l 0.10852,-0.44442 0.26355,-0.93018 1.493449,-4.67671 h 1.5761311 z"
           style="font-style:normal;font-variant:normal;font-weight:bold;font-stretch:normal;font-size:10.58333302px;font-family:'Liberation Sans';-inkscape-font-specification:'Liberation Sans Bold';fill:#003057;fill-opacity:1;stroke-width:0.21100345"
           id="path14733" />
        <path
           d="m -3.5916031,133.75983 -0.6459554,-1.86035 h -2.7750244 l -0.6459553,1.86035 h -1.5244547 l 2.6561685,-7.28121 h 1.7983398 l 2.6458332,7.28121 z M -5.6276545,127.6 l -0.031006,0.11368 q -0.051676,0.18604 -0.1240234,0.42375 -0.072347,0.23771 -0.8888346,2.61483 h 2.0928954 l -0.7183024,-2.0929 -0.2222086,-0.7028 z"
           style="font-style:normal;font-variant:normal;font-weight:bold;font-stretch:normal;font-size:10.58333302px;font-family:'Liberation Sans';-inkscape-font-specification:'Liberation Sans Bold';fill:#003057;fill-opacity:1;stroke-width:0.21100345"
           id="path14735" />
        <path
           d="m -1.0956313,133.75983 v -7.28121 h 1.5244547 v 6.10298 h 3.9067382 v 1.17823 z"
           style="font-style:normal;font-variant:normal;font-weight:bold;font-stretch:normal;font-size:10.58333302px;font-family:'Liberation Sans';-inkscape-font-specification:'Liberation Sans Bold';fill:#003057;fill-opacity:1;stroke-width:0.21100345"
           id="path14737" />
        <path
           d="m 5.3690894,133.75983 v -7.28121 h 1.5244547 v 7.28121 z"
           style="font-style:normal;font-variant:normal;font-weight:bold;font-stretch:normal;font-size:10.58333302px;font-family:'Liberation Sans';-inkscape-font-specification:'Liberation Sans Bold';fill:#003057;fill-opacity:1;stroke-width:0.21100345"
           id="path14739" />
        <path
           d="m 14.800039,130.06496 q 0,1.12655 -0.444418,1.96887 -0.439249,0.83716 -1.250569,1.28158 -0.806152,0.44442 -1.850016,0.44442 H 8.3094791 v -7.28121 h 2.6354979 q 1.839681,0 2.847371,0.93017 1.007691,0.92501 1.007691,2.65617 z m -1.53479,0 q 0,-1.17305 -0.609782,-1.788 -0.609782,-0.62012 -1.741496,-0.62012 H 9.8339338 v 4.92476 h 1.2919112 q 0.981852,0 1.560628,-0.67696 0.578776,-0.67696 0.578776,-1.83968 z"
           style="font-style:normal;font-variant:normal;font-weight:bold;font-stretch:normal;font-size:10.58333302px;font-family:'Liberation Sans';-inkscape-font-specification:'Liberation Sans Bold';fill:#003057;fill-opacity:1;stroke-width:0.21100345"
           id="path14741" />
        <path
           d="m 20.417268,127.65684 v 2.25309 h 3.72587 v 1.17823 h -3.72587 v 2.67167 h -1.524455 v -7.28121 h 5.369181 v 1.17822 z"
           style="font-style:normal;font-variant:normal;font-weight:bold;font-stretch:normal;font-size:10.58333302px;font-family:'Liberation Sans';-inkscape-font-specification:'Liberation Sans Bold';fill:#003057;fill-opacity:1;stroke-width:0.21100345"
           id="path14743" />
        <path
           d="m 30.359813,133.75983 -1.689819,-2.76469 h -1.788005 v 2.76469 h -1.524454 v -7.28121 h 3.63802 q 1.302246,0 2.010214,0.56327 0.707967,0.55811 0.707967,1.60714 0,0.76481 -0.434082,1.32291 -0.434082,0.55294 -1.173055,0.72864 l 1.968872,3.05925 z m -0.180867,-5.04879 q 0,-1.04903 -1.343588,-1.04903 h -1.953369 v 2.14974 H 28.8767 q 0.640787,0 0.971517,-0.28939 0.330729,-0.28939 0.330729,-0.81132 z"
           style="font-style:normal;font-variant:normal;font-weight:bold;font-stretch:normal;font-size:10.58333302px;font-family:'Liberation Sans';-inkscape-font-specification:'Liberation Sans Bold';fill:#003057;fill-opacity:1;stroke-width:0.21100345"
           id="path14745" />
        <path
           d="m 40.08015,130.08563 q 0,1.13688 -0.449585,1.99988 -0.449585,0.863 -1.286743,1.32292 -0.837158,0.45475 -1.953369,0.45475 -1.715658,0 -2.692342,-1.00769 -0.971517,-1.01286 -0.971517,-2.76986 0,-1.75183 0.971517,-2.73368 0.971517,-0.98185 2.702677,-0.98185 1.731161,0 2.702678,0.99218 0.976684,0.99219 0.976684,2.72335 z m -1.555461,0 q 0,-1.17822 -0.558105,-1.84485 -0.558105,-0.67179 -1.565796,-0.67179 -1.023193,0 -1.581299,0.66663 -0.558105,0.66145 -0.558105,1.85001 0,1.1989 0.568441,1.89136 0.573608,0.6873 1.560628,0.6873 1.023193,0 1.576131,-0.6718 0.558105,-0.67179 0.558105,-1.90686 z"
           style="font-style:normal;font-variant:normal;font-weight:bold;font-stretch:normal;font-size:10.58333302px;font-family:'Liberation Sans';-inkscape-font-specification:'Liberation Sans Bold';fill:#003057;fill-opacity:1;stroke-width:0.21100345"
           id="path14747" />
        <path
           d="m 47.278677,133.75983 v -4.41317 q 0,-0.14986 0,-0.29972 0.0052,-0.14987 0.05168,-1.28675 -0.366903,1.3901 -0.542603,1.93787 l -1.312581,4.06177 h -1.085205 l -1.312582,-4.06177 -0.552938,-1.93787 q 0.06201,1.1989 0.06201,1.58647 v 4.41317 h -1.353922 v -7.28121 h 2.041219 l 1.302246,4.0721 0.113688,0.39274 0.248047,0.97669 0.325561,-1.16789 1.33842,-4.27364 H 48.6326 v 7.28121 z"
           style="font-style:normal;font-variant:normal;font-weight:bold;font-stretch:normal;font-size:10.58333302px;font-family:'Liberation Sans';-inkscape-font-specification:'Liberation Sans Bold';fill:#003057;fill-opacity:1;stroke-width:0.21100345"
           id="path14749" />
      </g>
    </g>
    <g
       id="g9570"
       style="opacity:1"
       transform="translate(174.52869,54.140061)">
      <g
         aria-label="6"
         style="font-style:normal;font-variant:normal;font-weight:normal;font-stretch:normal;font-size:14.55504894px;line-height:1.25;font-family:'Credit Card';-inkscape-font-specification:'Credit Card';letter-spacing:0px;word-spacing:0px;fill:#000000;fill-opacity:1;stroke:none;stroke-width:1.05685794"
         id="text982-0-8">
        <path
           d="m -26.983032,109.45148 q 0,2.60535 -1.280844,3.66787 -1.149849,0.97519 -3.798868,0.97519 -4.657615,0 -4.744946,-4.42474 l -0.189215,-10.1012 q -0.01456,-0.625867 0.378431,-1.004298 0.392986,-0.378432 1.004298,-0.378432 0.625868,0 0.989744,0.378432 0.363876,0.363876 0.363876,0.989743 l 0.07278,4.861385 q 0,0.43665 0.422097,0.43665 0.11644,0 0.291101,-0.0145 0.189215,-0.0291 0.422096,-0.0582 0.247436,-0.0291 0.422096,-0.0437 0.189216,-0.0291 0.305656,-0.0291 2.91101,0 4.031749,0.88786 1.309954,1.03341 1.309954,3.85709 z m -2.678129,-0.0873 q 0,-0.56765 -0.101885,-0.96064 -0.101885,-0.40754 -0.349321,-0.64042 -0.232881,-0.24743 -0.625867,-0.34932 -0.378431,-0.11644 -0.946078,-0.11644 -0.203771,0 -1.906712,0.0873 -0.232881,0.0146 -0.378431,0.24744 -0.145551,0.21832 -0.145551,0.48031 v 1.23718 q 0.02911,0.80053 0.189216,1.19352 0.363876,0.88785 1.921267,0.88785 1.382729,0 1.833936,-0.33476 0.509426,-0.4221 0.509426,-1.73205 z"
           style="font-size:14.55504894px;fill:#000000;fill-opacity:1;stroke-width:1.05685794"
           id="path14752" />
      </g>
      <g
         aria-label="2"
         style="font-style:normal;font-variant:normal;font-weight:normal;font-stretch:normal;font-size:14.55504894px;line-height:1.25;font-family:'Credit Card';-inkscape-font-specification:'Credit Card';letter-spacing:0px;word-spacing:0px;fill:#000000;fill-opacity:1;stroke:none;stroke-width:0.26458332"
         id="text4865">
        <path
           d="m -12.456158,112.82824 q 0,0.56765 -0.363877,0.91697 -0.363876,0.33477 -0.931523,0.33477 -0.08733,0 -0.218325,-0.0291 -0.130996,-0.0146 -0.305656,-0.0437 -0.363877,-0.0728 -0.494872,-0.0728 h -6.244116 q -0.756863,0 -1.120739,-0.32021 -0.349321,-0.32021 -0.392986,-1.06252 -0.07278,-1.39729 -0.116441,-2.19781 -0.04367,-0.80053 -0.04367,-1.04797 0,-1.44095 0.378432,-2.19781 0.480316,-0.93152 1.746605,-1.32451 0.494872,-0.14555 1.208069,-0.27655 0.727753,-0.14555 1.702941,-0.27654 2.474358,-0.33477 2.474358,-2.15415 0,-1.55739 -0.727752,-1.97949 -0.465762,-0.27654 -2.226922,-0.27654 -1.077074,0 -1.790271,0.26199 -0.989744,0.34932 -1.309955,0.34932 -0.567647,0 -0.873303,-0.49487 -0.247436,-0.4221 -0.247436,-0.97519 0,-1.76116 4.541176,-1.76116 2.809124,0 3.958973,0.844192 1.38273,1.033408 1.38273,3.740648 0,3.97353 -3.624208,4.5994 -0.378431,0.0437 -0.771417,0.0873 -0.378431,0.0437 -0.756863,0.0728 -1.018853,0.131 -1.55739,0.4221 -0.727752,0.42209 -0.727752,1.22262 0,1.84849 0.276546,1.99404 0.160105,0.0873 0.582201,0.10189 0.451207,0.0291 0.887858,0.0437 0.451207,0.0146 0.902413,0.0146 1.833937,0 2.256033,-0.0437 0.05822,-0.0145 0.203771,-0.0291 0.14555,-0.0291 0.378431,-0.0873 0.174661,-0.0291 0.320211,-0.0437 0.145551,-0.0146 0.261991,-0.0146 0.654977,0 1.047964,0.53854 0.334766,0.49487 0.334766,1.1644 z"
           style="stroke-width:0.26458332"
           id="path14755" />
      </g>
      <g
         aria-label="9"
         style="font-style:normal;font-variant:normal;font-weight:normal;font-stretch:normal;font-size:14.55504894px;line-height:1.25;font-family:'Credit Card';-inkscape-font-specification:'Credit Card';letter-spacing:0px;word-spacing:0px;fill:#000000;fill-opacity:1;stroke:none;stroke-width:0.26458332"
         id="text4869">
        <path
           d="m 1.8596533,112.68997 q 0.014555,0.61132 -0.3784313,1.0043 -0.3929863,0.37843 -1.00429839,0.37843 -0.62586711,0 -0.98974333,-0.36387 -0.34932117,-0.36388 -0.34932117,-0.98975 l -0.0436651,-4.86138 q 0,-0.39299 -0.50942676,-0.39299 -0.1309954,0 -0.3347661,0.0146 -0.1892156,0.0145 -0.4512065,0.0437 -0.5094267,0.0437 -0.7714176,0.0437 -2.8673446,0 -3.9735284,-0.90242 -1.2226241,-1.01885 -1.2226241,-3.85708 0,-2.7218 1.2080691,-3.711542 1.0625186,-0.887858 3.8861981,-0.887858 2.75090422,0 3.76975764,0.815083 1.13529386,0.916968 1.10618376,3.580537 -0.02911,2.12504 -0.014555,4.62851 0.014555,2.50347 0.072775,5.45814 z m -2.78001439,-8.61659 v -1.1644 q 0,-1.35362 -0.37843131,-1.73205 -0.3784312,-0.37843 -1.7611609,-0.37843 -1.49917,0 -1.9212664,0.2911 -0.5094268,0.37843 -0.5094268,1.77572 0,1.30995 0.4803167,1.67383 0.4075413,0.32021 1.7757159,0.32021 h 0.5385368 q 0.276546,0 0.582202,-0.0146 0.3202111,-0.0291 0.6840873,-0.0873 0.3347661,-0.0437 0.4220964,-0.1601 0.0873303,-0.131 0.0873303,-0.52399 z"
           style="stroke-width:0.26458332"
           id="path14758" />
      </g>
      <g
         aria-label="1"
         style="font-style:normal;font-variant:normal;font-weight:normal;font-stretch:normal;font-size:14.55504894px;line-height:1.25;font-family:'Credit Card';-inkscape-font-specification:'Credit Card';letter-spacing:0px;word-spacing:0px;fill:#000000;fill-opacity:1;stroke:none;stroke-width:0.26458332"
         id="text4873">
        <path
           d="m 16.365201,112.67542 q 0,0.26199 -0.101886,0.50942 -0.08733,0.23288 -0.247435,0.4221 -0.160106,0.17466 -0.378432,0.2911 -0.218325,0.11644 -0.480316,0.11644 l -7.7432864,0.0146 q -0.5822019,0 -0.916968,-0.36388 -0.3347662,-0.37843 -0.3347662,-0.96063 0,-1.36818 1.178959,-1.44095 0.6258671,0.0437 1.9067114,0.0437 0.5385368,-0.0145 0.582202,-0.30565 0.1018853,-0.77142 0.1455504,-1.86305 0.05822,-1.10618 0.05822,-2.56169 0,-1.4555 -0.1746601,-4.27918 -0.014555,-0.43665 -0.582202,-0.85875 -0.5385368,-0.40754 -0.5385368,-1.06252 0,-0.844193 0.8296378,-1.49917 0.7568621,-0.625867 1.6156101,-0.625867 1.513725,0 1.513725,1.222624 -0.01456,0.160106 -0.01456,0.509427 0,0.334766 -0.01455,0.887856 -0.01455,0.43665 -0.01455,0.78597 0,0.34933 0,0.62587 v 8.71848 q 0,0.40754 1.091629,0.37843 0.349321,0 0.858748,-0.0437 0.261991,-0.0291 0.407541,-0.0437 0.145551,-0.0146 0.174661,-0.0146 0.422096,0 0.800527,0.48032 0.378432,0.49487 0.378432,0.91697 z"
           style="stroke-width:0.26458332"
           id="path14761" />
      </g>
      <g
         aria-label="0"
         style="font-style:normal;font-variant:normal;font-weight:normal;font-stretch:normal;font-size:14.55504894px;line-height:1.25;font-family:'Credit Card';-inkscape-font-specification:'Credit Card';letter-spacing:0px;word-spacing:0px;fill:#000000;fill-opacity:1;stroke:none;stroke-width:0.26458332"
         id="text4877">
        <path
           d="m 45.208396,103.59307 q 0,0.40754 -0.01456,1.01886 0,0.61131 -0.01456,1.44095 -0.01455,0.82963 -0.01455,1.44095 0,0.59675 0,1.00429 0,2.21237 -0.334766,3.28944 -0.392986,1.25174 -1.484615,1.77572 -1.077074,0.52398 -3.318551,0.52398 -3.100226,0 -4.119079,-1.17896 -0.916968,-1.06252 -0.916968,-4.26463 v -4.99238 q 0,-3.20211 0.960633,-4.293737 1.033409,-1.164404 4.177299,-1.164404 3.042005,0 4.104524,1.237179 0.975188,1.106182 0.975188,4.162742 z m -2.736349,-0.5822 q 0,-1.35362 -0.523982,-1.79027 -0.480316,-0.39299 -1.906711,-0.39299 -1.004299,0 -1.47006,0.18922 -0.713198,0.27654 -0.844193,1.07707 -0.04366,0.2911 -0.04366,0.74231 0,0.11644 0,0.30566 0,0.17466 0.01456,0.42209 0.01456,0.24744 0.01456,0.45121 0,0.20377 0,0.36387 0,0.40755 0,1.0043 0,0.59676 -0.01456,1.41184 v 2.40159 q 0,1.38273 0.480317,1.79027 0.465761,0.40754 1.906711,0.40754 1.38273,0 1.848491,-0.43665 0.465762,-0.43665 0.465762,-1.80483 0,-0.50943 0,-1.26629 0.01455,-0.77142 0.02911,-1.80482 0.04367,-2.05227 0.04367,-3.07112 z"
           style="stroke-width:0.26458332"
           id="path14764" />
      </g>
      <g
         aria-label="0"
         style="font-style:normal;font-variant:normal;font-weight:normal;font-stretch:normal;font-size:14.55504894px;line-height:1.25;font-family:'Credit Card';-inkscape-font-specification:'Credit Card';letter-spacing:0px;word-spacing:0px;fill:#000000;fill-opacity:1;stroke:none;stroke-width:0.26458332"
         id="text4881">
        <path
           d="m 59.626353,103.59307 q 0,0.40754 -0.01456,1.01886 0,0.61131 -0.01456,1.44095 -0.01456,0.82963 -0.01456,1.44095 0,0.59675 0,1.00429 0,2.21237 -0.334766,3.28944 -0.392986,1.25174 -1.484615,1.77572 -1.077073,0.52398 -3.318551,0.52398 -3.100225,0 -4.119079,-1.17896 -0.916968,-1.06252 -0.916968,-4.26463 v -4.99238 q 0,-3.20211 0.960633,-4.293737 1.033409,-1.164404 4.177299,-1.164404 3.042006,0 4.104524,1.237179 0.975188,1.106182 0.975188,4.162742 z m -2.736349,-0.5822 q 0,-1.35362 -0.523981,-1.79027 -0.480317,-0.39299 -1.906712,-0.39299 -1.004298,0 -1.47006,0.18922 -0.713197,0.27654 -0.844193,1.07707 -0.04366,0.2911 -0.04366,0.74231 0,0.11644 0,0.30566 0,0.17466 0.01456,0.42209 0.01455,0.24744 0.01455,0.45121 0,0.20377 0,0.36387 0,0.40755 0,1.0043 0,0.59676 -0.01455,1.41184 v 2.40159 q 0,1.38273 0.480317,1.79027 0.465761,0.40754 1.906711,0.40754 1.38273,0 1.848491,-0.43665 0.465762,-0.43665 0.465762,-1.80483 0,-0.50943 0,-1.26629 0.01456,-0.77142 0.02911,-1.80482 0.04366,-2.05227 0.04366,-3.07112 z"
           style="stroke-width:0.26458332"
           id="path14767" />
      </g>
      <g
         aria-label="6"
         style="font-style:normal;font-variant:normal;font-weight:normal;font-stretch:normal;font-size:14.55504894px;line-height:1.25;font-family:'Credit Card';-inkscape-font-specification:'Credit Card';letter-spacing:0px;word-spacing:0px;fill:#000000;fill-opacity:1;stroke:none;stroke-width:0.26458332"
         id="text4885">
        <path
           d="m 73.942685,109.45148 q 0,2.60535 -1.280844,3.66787 -1.149849,0.97519 -3.798868,0.97519 -4.657616,0 -4.744946,-4.42474 L 63.928811,99.5686 q -0.01456,-0.625867 0.378431,-1.004298 0.392987,-0.378432 1.004299,-0.378432 0.625867,0 0.989743,0.378432 0.363876,0.363876 0.363876,0.989743 l 0.07278,4.861385 q 0,0.43665 0.422096,0.43665 0.11644,0 0.291101,-0.0145 0.189216,-0.0291 0.422096,-0.0582 0.247436,-0.0291 0.422097,-0.0437 0.189215,-0.0291 0.305656,-0.0291 2.91101,0 4.031748,0.88786 1.309955,1.03341 1.309955,3.85709 z m -2.678129,-0.0873 q 0,-0.56765 -0.101886,-0.96064 -0.101885,-0.40754 -0.349321,-0.64042 -0.23288,-0.24743 -0.625867,-0.34932 -0.378431,-0.11644 -0.946078,-0.11644 -0.203771,0 -1.906711,0.0873 -0.232881,0.0146 -0.378432,0.24744 -0.14555,0.21832 -0.14555,0.48031 v 1.23718 q 0.02911,0.80053 0.189215,1.19352 0.363877,0.88785 1.921267,0.88785 1.38273,0 1.833936,-0.33476 0.509427,-0.4221 0.509427,-1.73205 z"
           style="stroke-width:0.26458332"
           id="path14770" />
      </g>
      <g
         aria-label="6"
         style="font-style:normal;font-variant:normal;font-weight:normal;font-stretch:normal;font-size:14.55504894px;line-height:1.25;font-family:'Credit Card';-inkscape-font-specification:'Credit Card';letter-spacing:0px;word-spacing:0px;fill:#000000;fill-opacity:1;stroke:none;stroke-width:0.26458332"
         id="text4889">
        <path
           d="m 88.360642,109.45148 q 0,2.60535 -1.280844,3.66787 -1.149849,0.97519 -3.798868,0.97519 -4.657616,0 -4.744946,-4.42474 L 78.346768,99.5686 q -0.01456,-0.625867 0.378432,-1.004298 0.392986,-0.378432 1.004298,-0.378432 0.625867,0 0.989743,0.378432 0.363877,0.363876 0.363877,0.989743 l 0.07278,4.861385 q 0,0.43665 0.422096,0.43665 0.116441,0 0.291101,-0.0145 0.189216,-0.0291 0.422097,-0.0582 0.247436,-0.0291 0.422096,-0.0437 0.189216,-0.0291 0.305656,-0.0291 2.91101,0 4.031749,0.88786 1.309954,1.03341 1.309954,3.85709 z m -2.678129,-0.0873 q 0,-0.56765 -0.101885,-0.96064 -0.101886,-0.40754 -0.349321,-0.64042 -0.232881,-0.24743 -0.625867,-0.34932 -0.378432,-0.11644 -0.946079,-0.11644 -0.20377,0 -1.906711,0.0873 -0.232881,0.0146 -0.378431,0.24744 -0.145551,0.21832 -0.145551,0.48031 v 1.23718 q 0.02911,0.80053 0.189216,1.19352 0.363876,0.88785 1.921266,0.88785 1.38273,0 1.833936,-0.33476 0.509427,-0.4221 0.509427,-1.73205 z"
           style="stroke-width:0.26458332"
           id="path14773" />
      </g>
      <g
         aria-label="5"
         style="font-style:normal;font-variant:normal;font-weight:normal;font-stretch:normal;font-size:14.55504894px;line-height:1.25;font-family:'Credit Card';-inkscape-font-specification:'Credit Card';letter-spacing:0px;word-spacing:0px;fill:#000000;fill-opacity:1;stroke:none;stroke-width:0.26458332"
         id="text4893">
        <path
           d="m 117.1963,109.37142 q 0,2.56169 -1.04797,3.65331 -1.07707,1.1353 -3.60965,1.1353 -0.49487,0 -1.20807,-0.0437 -0.0145,0 -0.30565,-0.0145 -0.2911,0 -0.90242,-0.0146 -1.26629,-0.0145 -1.92126,-0.2911 -1.01886,-0.40754 -1.01886,-1.52828 0,-0.52398 0.34932,-0.91697 0.36388,-0.39298 0.90242,-0.39298 0.33476,0 1.55739,0.30565 1.25173,0.2911 1.77571,0.2911 1.7175,0 2.21237,-0.4512 0.49487,-0.45121 0.49487,-2.15415 0,-0.50943 -0.33476,-0.90241 -0.33477,-0.39299 -0.8442,-0.4221 -0.98974,-0.0582 -1.61561,-0.0728 -0.61131,-0.0291 -0.88785,-0.0291 -0.17466,0 -0.40755,0.0291 -0.21832,0.0145 -0.50942,0.0728 -0.2911,0.0582 -0.50943,0.0873 -0.20377,0.0146 -0.34932,0.0146 -1.03341,0 -1.44095,-0.53854 -0.37843,-0.46576 -0.37843,-1.51373 0,-0.46576 0.0145,-1.17895 0.0146,-0.72776 0.0437,-1.68839 0.0291,-0.96063 0.0437,-1.67383 0.0146,-0.72775 0.0146,-1.20807 0,-0.640422 0.32021,-1.062519 0.34932,-0.494871 0.97519,-0.494871 0.18921,0 0.45121,0.02911 0.27654,0.01456 0.64042,0.07277 0.37843,0.05822 0.65497,0.08733 0.27655,0.01455 0.46577,0.01455 0.65497,0 3.40588,-0.261991 0.0728,-0.01456 0.24743,-0.02911 0.17466,-0.02911 0.43665,-0.08733 0.20378,-0.02911 0.37844,-0.04367 0.17466,-0.02911 0.30565,-0.02911 0.2911,0 0.53854,0.11644 0.26199,0.116441 0.43665,0.320211 0.18922,0.189216 0.2911,0.451207 0.11644,0.261991 0.11644,0.553092 0,0.902416 -0.7132,1.178956 -0.39298,0.18922 -1.38273,0.18922 -2.95467,0 -4.32284,0.21832 -0.43666,0.0582 -0.46577,0.4221 l -0.0873,1.2954 q -0.0291,0.40754 -0.0582,0.74231 -0.0145,0.32021 -0.0145,0.56764 0,0.7132 0.30565,0.85875 0.131,0.0582 0.94608,0.0582 h 1.41184 q 0.11644,0 0.2911,0 0.17466,0 0.40754,-0.0145 0.23289,-0.0146 0.40755,-0.0146 0.17466,-0.0145 0.2911,-0.0145 1.86304,0 2.63446,1.2954 0.56765,1.00429 0.56765,3.02745 z"
           style="stroke-width:0.26458332"
           id="path14776" />
      </g>
      <g
         aria-label="9"
         style="font-style:normal;font-variant:normal;font-weight:normal;font-stretch:normal;font-size:14.55504894px;line-height:1.25;font-family:'Credit Card';-inkscape-font-specification:'Credit Card';letter-spacing:0px;word-spacing:0px;fill:#000000;fill-opacity:1;stroke:none;stroke-width:0.26458332"
         id="text4897">
        <path
           d="m 131.6213,112.68997 q 0.0146,0.61132 -0.37843,1.0043 -0.39299,0.37843 -1.0043,0.37843 -0.62587,0 -0.98974,-0.36387 -0.34933,-0.36388 -0.34933,-0.98975 l -0.0437,-4.86138 q 0,-0.39299 -0.50943,-0.39299 -0.13099,0 -0.33476,0.0146 -0.18922,0.0145 -0.45121,0.0437 -0.50943,0.0437 -0.77142,0.0437 -2.86734,0 -3.97353,-0.90242 -1.22262,-1.01885 -1.22262,-3.85708 0,-2.7218 1.20807,-3.711542 1.06252,-0.887858 3.8862,-0.887858 2.7509,0 3.76975,0.815083 1.1353,0.916968 1.10619,3.580537 -0.0291,2.12504 -0.0146,4.62851 0.0146,2.50347 0.0728,5.45814 z m -2.78002,-8.61659 v -1.1644 q 0,-1.35362 -0.37843,-1.73205 -0.37843,-0.37843 -1.76116,-0.37843 -1.49917,0 -1.92126,0.2911 -0.50943,0.37843 -0.50943,1.77572 0,1.30995 0.48032,1.67383 0.40754,0.32021 1.77571,0.32021 h 0.53854 q 0.27654,0 0.5822,-0.0146 0.32021,-0.0291 0.68409,-0.0873 0.33476,-0.0437 0.42209,-0.1601 0.0873,-0.131 0.0873,-0.52399 z"
           style="stroke-width:0.26458332"
           id="path14779" />
      </g>
      <g
         aria-label="1"
         style="font-style:normal;font-variant:normal;font-weight:normal;font-stretch:normal;font-size:14.55504894px;line-height:1.25;font-family:'Credit Card';-inkscape-font-specification:'Credit Card';letter-spacing:0px;word-spacing:0px;fill:#000000;fill-opacity:1;stroke:none;stroke-width:0.26458332"
         id="text4901">
        <path
           d="m 146.12683,112.67542 q 0,0.26199 -0.10188,0.50942 -0.0873,0.23288 -0.24744,0.4221 -0.1601,0.17466 -0.37843,0.2911 -0.21832,0.11644 -0.48031,0.11644 l -7.74329,0.0146 q -0.5822,0 -0.91697,-0.36388 -0.33477,-0.37843 -0.33477,-0.96063 0,-1.36818 1.17896,-1.44095 0.62587,0.0437 1.90672,0.0437 0.53853,-0.0145 0.5822,-0.30565 0.10188,-0.77142 0.14555,-1.86305 0.0582,-1.10618 0.0582,-2.56169 0,-1.4555 -0.17466,-4.27918 -0.0146,-0.43665 -0.5822,-0.85875 -0.53854,-0.40754 -0.53854,-1.06252 0,-0.844193 0.82964,-1.49917 0.75686,-0.625867 1.61561,-0.625867 1.51372,0 1.51372,1.222624 -0.0145,0.160106 -0.0145,0.509427 0,0.334766 -0.0146,0.887856 -0.0145,0.43665 -0.0145,0.78597 0,0.34933 0,0.62587 v 8.71848 q 0,0.40754 1.09163,0.37843 0.34932,0 0.85874,-0.0437 0.26199,-0.0291 0.40754,-0.0437 0.14556,-0.0146 0.17467,-0.0146 0.42209,0 0.80052,0.48032 0.37843,0.49487 0.37843,0.91697 z"
           style="stroke-width:0.26458332"
           id="path14782" />
      </g>
      <g
         aria-label="2"
         style="font-style:normal;font-variant:normal;font-weight:normal;font-stretch:normal;font-size:14.55504894px;line-height:1.25;font-family:'Credit Card';-inkscape-font-specification:'Credit Card';letter-spacing:0px;word-spacing:0px;fill:#000000;fill-opacity:1;stroke:none;stroke-width:0.26458332"
         id="text4905">
        <path
           d="m 160.55936,112.82824 q 0,0.56765 -0.36388,0.91697 -0.36387,0.33477 -0.93152,0.33477 -0.0873,0 -0.21833,-0.0291 -0.13099,-0.0146 -0.30565,-0.0437 -0.36388,-0.0728 -0.49487,-0.0728 h -6.24412 q -0.75686,0 -1.12074,-0.32021 -0.34932,-0.32021 -0.39299,-1.06252 -0.0728,-1.39729 -0.11644,-2.19781 -0.0437,-0.80053 -0.0437,-1.04797 0,-1.44095 0.37843,-2.19781 0.48032,-0.93152 1.74661,-1.32451 0.49487,-0.14555 1.20806,-0.27655 0.72776,-0.14555 1.70295,-0.27654 2.47435,-0.33477 2.47435,-2.15415 0,-1.55739 -0.72775,-1.97949 -0.46576,-0.27654 -2.22692,-0.27654 -1.07707,0 -1.79027,0.26199 -0.98975,0.34932 -1.30996,0.34932 -0.56764,0 -0.8733,-0.49487 -0.24744,-0.4221 -0.24744,-0.97519 0,-1.76116 4.54118,-1.76116 2.80912,0 3.95897,0.844192 1.38273,1.033408 1.38273,3.740648 0,3.97353 -3.6242,4.5994 -0.37844,0.0437 -0.77142,0.0873 -0.37843,0.0437 -0.75686,0.0728 -1.01886,0.131 -1.55739,0.4221 -0.72776,0.42209 -0.72776,1.22262 0,1.84849 0.27655,1.99404 0.1601,0.0873 0.5822,0.10189 0.45121,0.0291 0.88786,0.0437 0.45121,0.0146 0.90241,0.0146 1.83394,0 2.25603,-0.0437 0.0582,-0.0145 0.20378,-0.0291 0.14555,-0.0291 0.37843,-0.0873 0.17466,-0.0291 0.32021,-0.0437 0.14555,-0.0146 0.26199,-0.0146 0.65498,0 1.04796,0.53854 0.33477,0.49487 0.33477,1.1644 z"
           style="stroke-width:0.26458332"
           id="path14785" />
      </g>
      <g
         aria-label="2"
         style="font-style:normal;font-variant:normal;font-weight:normal;font-stretch:normal;font-size:14.55504894px;line-height:1.25;font-family:'Credit Card';-inkscape-font-specification:'Credit Card';letter-spacing:0px;word-spacing:0px;fill:#000000;fill-opacity:1;stroke:none;stroke-width:0.26458332"
         id="text4937">
        <path
           d="m 189.39526,112.82824 q 0,0.56765 -0.36387,0.91697 -0.36388,0.33477 -0.93152,0.33477 -0.0873,0 -0.21833,-0.0291 -0.131,-0.0146 -0.30566,-0.0437 -0.36387,-0.0728 -0.49487,-0.0728 h -6.24411 q -0.75687,0 -1.12074,-0.32021 -0.34932,-0.32021 -0.39299,-1.06252 -0.0728,-1.39729 -0.11644,-2.19781 -0.0437,-0.80053 -0.0437,-1.04797 0,-1.44095 0.37843,-2.19781 0.48031,-0.93152 1.7466,-1.32451 0.49487,-0.14555 1.20807,-0.27655 0.72775,-0.14555 1.70294,-0.27654 2.47436,-0.33477 2.47436,-2.15415 0,-1.55739 -0.72775,-1.97949 -0.46576,-0.27654 -2.22692,-0.27654 -1.07708,0 -1.79028,0.26199 -0.98974,0.34932 -1.30995,0.34932 -0.56765,0 -0.8733,-0.49487 -0.24744,-0.4221 -0.24744,-0.97519 0,-1.76116 4.54118,-1.76116 2.80912,0 3.95897,0.844192 1.38273,1.033408 1.38273,3.740648 0,3.97353 -3.62421,4.5994 -0.37843,0.0437 -0.77141,0.0873 -0.37844,0.0437 -0.75687,0.0728 -1.01885,0.131 -1.55739,0.4221 -0.72775,0.42209 -0.72775,1.22262 0,1.84849 0.27655,1.99404 0.1601,0.0873 0.5822,0.10189 0.4512,0.0291 0.88786,0.0437 0.4512,0.0146 0.90241,0.0146 1.83393,0 2.25603,-0.0437 0.0582,-0.0145 0.20377,-0.0291 0.14555,-0.0291 0.37843,-0.0873 0.17466,-0.0291 0.32021,-0.0437 0.14555,-0.0146 0.262,-0.0146 0.65497,0 1.04796,0.53854 0.33476,0.49487 0.33476,1.1644 z"
           style="stroke-width:0.26458332"
           id="path14788" />
      </g>
      <g
         aria-label="1"
         style="font-style:normal;font-variant:normal;font-weight:normal;font-stretch:normal;font-size:14.55504894px;line-height:1.25;font-family:'Credit Card';-inkscape-font-specification:'Credit Card';letter-spacing:0px;word-spacing:0px;fill:#000000;fill-opacity:1;stroke:none;stroke-width:0.26458332"
         id="text4941">
        <path
           d="m 203.79866,112.67542 q 0,0.26199 -0.10188,0.50942 -0.0873,0.23288 -0.24744,0.4221 -0.1601,0.17466 -0.37843,0.2911 -0.21832,0.11644 -0.48032,0.11644 l -7.74328,0.0146 q -0.5822,0 -0.91697,-0.36388 -0.33477,-0.37843 -0.33477,-0.96063 0,-1.36818 1.17896,-1.44095 0.62587,0.0437 1.90671,0.0437 0.53854,-0.0145 0.58221,-0.30565 0.10188,-0.77142 0.14555,-1.86305 0.0582,-1.10618 0.0582,-2.56169 0,-1.4555 -0.17466,-4.27918 -0.0146,-0.43665 -0.58221,-0.85875 -0.53853,-0.40754 -0.53853,-1.06252 0,-0.844193 0.82964,-1.49917 0.75686,-0.625867 1.61561,-0.625867 1.51372,0 1.51372,1.222624 -0.0145,0.160106 -0.0145,0.509427 0,0.334766 -0.0146,0.887856 -0.0145,0.43665 -0.0145,0.78597 0,0.34933 0,0.62587 v 8.71848 q 0,0.40754 1.09162,0.37843 0.34933,0 0.85875,-0.0437 0.26199,-0.0291 0.40754,-0.0437 0.14555,-0.0146 0.17466,-0.0146 0.4221,0 0.80053,0.48032 0.37843,0.49487 0.37843,0.91697 z"
           style="stroke-width:0.26458332"
           id="path14791" />
      </g>
      <g
         aria-label="1"
         style="font-style:normal;font-variant:normal;font-weight:normal;font-stretch:normal;font-size:14.55504894px;line-height:1.25;font-family:'Credit Card';-inkscape-font-specification:'Credit Card';letter-spacing:0px;word-spacing:0px;fill:#000000;fill-opacity:1;stroke:none;stroke-width:0.26458332"
         id="text4945">
        <path
           d="m 218.21663,112.67542 q 0,0.26199 -0.10188,0.50942 -0.0873,0.23288 -0.24744,0.4221 -0.1601,0.17466 -0.37843,0.2911 -0.21833,0.11644 -0.48032,0.11644 l -7.74328,0.0146 q -0.5822,0 -0.91697,-0.36388 -0.33477,-0.37843 -0.33477,-0.96063 0,-1.36818 1.17896,-1.44095 0.62587,0.0437 1.90671,0.0437 0.53854,-0.0145 0.58221,-0.30565 0.10188,-0.77142 0.14555,-1.86305 0.0582,-1.10618 0.0582,-2.56169 0,-1.4555 -0.17466,-4.27918 -0.0146,-0.43665 -0.58221,-0.85875 -0.53853,-0.40754 -0.53853,-1.06252 0,-0.844193 0.82963,-1.49917 0.75687,-0.625867 1.61561,-0.625867 1.51373,0 1.51373,1.222624 -0.0146,0.160106 -0.0146,0.509427 0,0.334766 -0.0145,0.887856 -0.0146,0.43665 -0.0146,0.78597 0,0.34933 0,0.62587 v 8.71848 q 0,0.40754 1.09163,0.37843 0.34932,0 0.85875,-0.0437 0.26199,-0.0291 0.40754,-0.0437 0.14555,-0.0146 0.17466,-0.0146 0.4221,0 0.80053,0.48032 0.37843,0.49487 0.37843,0.91697 z"
           style="stroke-width:0.26458332"
           id="path14794" />
      </g>
      <g
         aria-label="0"
         style="font-style:normal;font-variant:normal;font-weight:normal;font-stretch:normal;font-size:14.55504894px;line-height:1.25;font-family:'Credit Card';-inkscape-font-specification:'Credit Card';letter-spacing:0px;word-spacing:0px;fill:#000000;fill-opacity:1;stroke:none;stroke-width:0.26458332"
         id="text4949">
        <path
           d="m 232.64186,103.59307 q 0,0.40754 -0.0146,1.01886 0,0.61131 -0.0146,1.44095 -0.0146,0.82963 -0.0146,1.44095 0,0.59675 0,1.00429 0,2.21237 -0.33477,3.28944 -0.39298,1.25174 -1.48461,1.77572 -1.07708,0.52398 -3.31855,0.52398 -3.10023,0 -4.11908,-1.17896 -0.91697,-1.06252 -0.91697,-4.26463 v -4.99238 q 0,-3.20211 0.96063,-4.293737 1.03341,-1.164404 4.1773,-1.164404 3.04201,0 4.10453,1.237179 0.97518,1.106182 0.97518,4.162742 z m -2.73635,-0.5822 q 0,-1.35362 -0.52398,-1.79027 -0.48031,-0.39299 -1.90671,-0.39299 -1.0043,0 -1.47006,0.18922 -0.7132,0.27654 -0.84419,1.07707 -0.0437,0.2911 -0.0437,0.74231 0,0.11644 0,0.30566 0,0.17466 0.0146,0.42209 0.0145,0.24744 0.0145,0.45121 0,0.20377 0,0.36387 0,0.40755 0,1.0043 0,0.59676 -0.0145,1.41184 v 2.40159 q 0,1.38273 0.48032,1.79027 0.46576,0.40754 1.90671,0.40754 1.38273,0 1.84849,-0.43665 0.46576,-0.43665 0.46576,-1.80483 0,-0.50943 0,-1.26629 0.0145,-0.77142 0.0291,-1.80482 0.0437,-2.05227 0.0437,-3.07112 z"
           style="stroke-width:0.26458332"
           id="path14797" />
      </g>
    </g>
    <g
       transform="translate(174.57951,54.140061)"
       id="g9586"
       style="opacity:1">
      <g
         aria-label="a"
         style="font-style:normal;font-variant:normal;font-weight:normal;font-stretch:normal;font-size:14.55504894px;line-height:1.25;font-family:'Credit Card';-inkscape-font-specification:'Credit Card';letter-spacing:0px;word-spacing:0px;fill:#000000;fill-opacity:1;stroke:none;stroke-width:0.26458332"
         id="text5025">
        <path
           d="m -10.151878,148.24793 q 0,0.50942 -0.305656,0.69864 -0.23288,0.14555 -0.815082,0.14555 l -0.946079,-0.0146 q -0.654977,0 -0.902413,-0.20377 -0.247435,-0.21832 -0.247435,-0.66953 0,-0.24744 0.17466,-0.49487 l 0.261991,-0.2911 q 0.232881,-0.27655 0.232881,-0.87331 v -5.69102 q 0,-0.39299 -0.145551,-0.49487 -0.378431,-0.26199 -0.378431,-0.74231 0,-0.39299 0.451207,-0.74231 0.451206,-0.36387 0.989743,-0.34932 l 0.276546,0.0146 q 0.727752,0.0291 0.727752,0.85875 v 7.20474 q 0,0.48032 0.305656,0.93153 0.320211,0.42209 0.320211,0.7132 z"
           style="stroke-width:0.26458332"
           id="path14633" />
      </g>
      <g
         aria-label="a"
         style="font-style:normal;font-variant:normal;font-weight:normal;font-stretch:normal;font-size:14.55504894px;line-height:1.25;font-family:'Credit Card';-inkscape-font-specification:'Credit Card';letter-spacing:0px;word-spacing:0px;fill:#000000;fill-opacity:1;stroke:none;stroke-width:0.26458332"
         id="text5029">
        <path
           d="m -0.00881698,148.24793 q 0,0.50942 -0.30565603,0.69864 -0.23288078,0.14555 -0.81508269,0.14555 l -0.9460782,-0.0146 q -0.6549772,0 -0.9024131,-0.20377 -0.2474358,-0.21832 -0.2474358,-0.66953 0,-0.24744 0.1746606,-0.49487 l 0.2619909,-0.2911 q 0.2328808,-0.27655 0.2328808,-0.87331 v -5.69102 q 0,-0.39299 -0.1455505,-0.49487 -0.3784313,-0.26199 -0.3784313,-0.74231 0,-0.39299 0.4512065,-0.74231 0.4512065,-0.36387 0.9897433,-0.34932 l 0.276546,0.0146 q 0.72775241,0.0291 0.72775241,0.85875 v 7.20474 q 0,0.48032 0.30565603,0.93153 0.32021108,0.42209 0.32021108,0.7132 z"
           style="stroke-width:0.26458332"
           id="path14636" />
      </g>
      <g
         aria-label="k"
         style="font-style:normal;font-variant:normal;font-weight:normal;font-stretch:normal;font-size:14.55504894px;line-height:1.25;font-family:'Credit Card';-inkscape-font-specification:'Credit Card';letter-spacing:0px;word-spacing:0px;fill:#000000;fill-opacity:1;stroke:none;stroke-width:1.05685794"
         id="text982-6-88">
        <path
           d="m 32.421579,143.83019 q 0,2.15415 -0.698642,3.55143 -0.931524,1.80483 -2.896455,1.80483 -1.906712,0 -2.867345,-1.80483 -0.756862,-1.42639 -0.756862,-3.49321 0,-2.1687 0.684087,-3.58054 0.887858,-1.8776 2.896455,-1.8776 1.979486,0 2.925565,1.83394 0.713197,1.38272 0.713197,3.56598 z m -2.023152,0.0146 q 0,-1.47006 -0.203771,-2.24148 -0.378431,-1.30995 -1.411839,-1.30995 -1.586501,0 -1.586501,3.58054 0,3.44954 1.630166,3.44954 0.989743,0 1.368174,-1.26629 0.203771,-0.77141 0.203771,-2.21236 z"
           style="font-size:14.55504894px;fill:#000000;fill-opacity:1;stroke-width:1.05685794"
           id="path14639" />
      </g>
      <g
         aria-label="x"
         style="font-style:normal;font-variant:normal;font-weight:normal;font-stretch:normal;font-size:14.55504894px;line-height:1.25;font-family:'Credit Card';-inkscape-font-specification:'Credit Card';letter-spacing:0px;word-spacing:0px;fill:#000000;fill-opacity:1;stroke:none;stroke-width:0.26458332"
         id="text5033">
        <path
           d="m 22.169381,143.91752 q 0,2.02315 -0.727752,3.44955 -0.960634,1.84849 -2.896455,1.84849 -1.833936,0 -2.721794,-1.32451 -0.174661,-0.20377 -0.378431,-0.43665 -0.189216,-0.24744 -0.189216,-0.49488 0,-0.65497 0.582202,-0.65497 h 1.120739 q 0.378431,0 0.538536,0.13099 0.04367,0.0437 0.07278,0.131 0.02911,0.0728 0.04367,0.1601 0.02911,0.0873 0.04367,0.16011 0.02911,0.0728 0.07278,0.11644 0.305656,0.30566 0.844193,0.30566 1.222624,0 1.47006,-2.1396 0.01456,-0.27654 -0.261991,-0.27654 -0.07278,0 -0.160105,0.0291 -0.523982,0.24743 -1.222625,0.24743 -1.251734,0 -2.212367,-0.91697 -1.018853,-0.97518 -1.018853,-2.47435 0,-1.47006 1.018853,-2.44525 0.946078,-0.93152 2.285143,-0.93152 1.935821,0 2.896454,1.77571 0.800528,1.45551 0.800528,3.74065 z m -2.256032,-1.52828 q 0,-0.80053 -0.334767,-1.38273 -0.422096,-0.72775 -1.222624,-0.72775 -0.538536,0 -0.946078,0.40754 -0.451206,0.40754 -0.451206,1.04796 0,0.66953 0.407541,1.10619 0.407541,0.42209 0.975188,0.42209 0.800528,0 1.280845,-0.26199 0.276546,-0.1601 0.291101,-0.61131 z"
           style="stroke-width:0.26458332"
           id="path14642" />
      </g>
    </g>
    <g
       transform="translate(174.57951,54.140061)"
       id="g9596"
       style="opacity:1">
      <g
         aria-label="a"
         style="font-style:normal;font-variant:normal;font-weight:normal;font-stretch:normal;font-size:14.55504894px;line-height:1.25;font-family:'Credit Card';-inkscape-font-specification:'Credit Card';letter-spacing:0px;word-spacing:0px;fill:#000000;fill-opacity:1;stroke:none;stroke-width:1.05685794"
         id="text982-6-88-9">
        <path
           d="m 192.70883,148.24793 q 0,0.50942 -0.30566,0.69864 -0.23288,0.14555 -0.81508,0.14555 l -0.94608,-0.0146 q -0.65497,0 -0.90241,-0.20377 -0.24744,-0.21832 -0.24744,-0.66953 0,-0.24744 0.17467,-0.49487 l 0.26199,-0.2911 q 0.23288,-0.27655 0.23288,-0.87331 v -5.69102 q 0,-0.39299 -0.14555,-0.49487 -0.37843,-0.26199 -0.37843,-0.74231 0,-0.39299 0.4512,-0.74231 0.45121,-0.36387 0.98975,-0.34932 l 0.27654,0.0146 q 0.72775,0.0291 0.72775,0.85875 v 7.20474 q 0,0.48032 0.30566,0.93153 0.32021,0.42209 0.32021,0.7132 z"
           style="font-size:14.55504894px;fill:#000000;fill-opacity:1;stroke-width:1.05685794"
           id="path14702" />
      </g>
      <g
         aria-label="x"
         style="font-style:normal;font-variant:normal;font-weight:normal;font-stretch:normal;font-size:14.55504894px;line-height:1.25;font-family:'Credit Card';-inkscape-font-specification:'Credit Card';letter-spacing:0px;word-spacing:0px;fill:#000000;fill-opacity:1;stroke:none;stroke-width:0.26458332"
         id="text5033-0">
        <path
           d="m 184.45788,143.91752 q 0,2.02315 -0.72776,3.44955 -0.96063,1.84849 -2.89645,1.84849 -1.83394,0 -2.72179,-1.32451 -0.17466,-0.20377 -0.37844,-0.43665 -0.18921,-0.24744 -0.18921,-0.49488 0,-0.65497 0.5822,-0.65497 h 1.12074 q 0.37843,0 0.53854,0.13099 0.0437,0.0437 0.0728,0.131 0.0291,0.0728 0.0437,0.1601 0.0291,0.0873 0.0437,0.16011 0.0291,0.0728 0.0728,0.11644 0.30565,0.30566 0.84419,0.30566 1.22262,0 1.47006,-2.1396 0.0146,-0.27654 -0.26199,-0.27654 -0.0728,0 -0.16011,0.0291 -0.52398,0.24743 -1.22262,0.24743 -1.25173,0 -2.21237,-0.91697 -1.01885,-0.97518 -1.01885,-2.47435 0,-1.47006 1.01885,-2.44525 0.94608,-0.93152 2.28514,-0.93152 1.93583,0 2.89646,1.77571 0.80053,1.45551 0.80053,3.74065 z m -2.25604,-1.52828 q 0,-0.80053 -0.33476,-1.38273 -0.4221,-0.72775 -1.22263,-0.72775 -0.53853,0 -0.94607,0.40754 -0.45121,0.40754 -0.45121,1.04796 0,0.66953 0.40754,1.10619 0.40754,0.42209 0.97519,0.42209 0.80053,0 1.28084,-0.26199 0.27655,-0.1601 0.2911,-0.61131 z"
           style="stroke-width:0.26458332"
           id="path14705" />
      </g>
      <g
         aria-label="a"
         style="font-style:normal;font-variant:normal;font-weight:normal;font-stretch:normal;font-size:14.55504894px;line-height:1.25;font-family:'Credit Card';-inkscape-font-specification:'Credit Card';letter-spacing:0px;word-spacing:0px;fill:#000000;fill-opacity:1;stroke:none;stroke-width:0.26458332"
         id="text5076">
        <path
           d="m 152.13673,148.24793 q 0,0.50942 -0.30565,0.69864 -0.23288,0.14555 -0.81509,0.14555 l -0.94607,-0.0146 q -0.65498,0 -0.90242,-0.20377 -0.24743,-0.21832 -0.24743,-0.66953 0,-0.24744 0.17466,-0.49487 l 0.26199,-0.2911 q 0.23288,-0.27655 0.23288,-0.87331 v -5.69102 q 0,-0.39299 -0.14555,-0.49487 -0.37843,-0.26199 -0.37843,-0.74231 0,-0.39299 0.4512,-0.74231 0.45121,-0.36387 0.98975,-0.34932 l 0.27654,0.0146 q 0.72776,0.0291 0.72776,0.85875 v 7.20474 q 0,0.48032 0.30565,0.93153 0.32021,0.42209 0.32021,0.7132 z"
           style="stroke-width:0.26458332"
           id="path14708" />
      </g>
      <g
         aria-label="a"
         style="font-style:normal;font-variant:normal;font-weight:normal;font-stretch:normal;font-size:14.55504894px;line-height:1.25;font-family:'Credit Card';-inkscape-font-specification:'Credit Card';letter-spacing:0px;word-spacing:0px;fill:#000000;fill-opacity:1;stroke:none;stroke-width:0.26458332"
         id="text5080">
        <path
           d="m 162.27974,148.24793 q 0,0.50942 -0.30566,0.69864 -0.23288,0.14555 -0.81508,0.14555 l -0.94608,-0.0146 q -0.65498,0 -0.90241,-0.20377 -0.24744,-0.21832 -0.24744,-0.66953 0,-0.24744 0.17466,-0.49487 l 0.26199,-0.2911 q 0.23288,-0.27655 0.23288,-0.87331 v -5.69102 q 0,-0.39299 -0.14555,-0.49487 -0.37843,-0.26199 -0.37843,-0.74231 0,-0.39299 0.45121,-0.74231 0.45121,-0.36387 0.98974,-0.34932 l 0.27655,0.0146 q 0.72775,0.0291 0.72775,0.85875 v 7.20474 q 0,0.48032 0.30566,0.93153 0.32021,0.42209 0.32021,0.7132 z"
           style="stroke-width:0.26458332"
           id="path14711" />
      </g>
    </g>
    <g
       transform="translate(174.57951,54.140061)"
       id="g9636"
       style="opacity:1">
      <g
         aria-label="C"
         style="font-style:normal;font-variant:normal;font-weight:normal;font-stretch:normal;font-size:14.55504894px;line-height:1.25;font-family:'Credit Card';-inkscape-font-specification:'Credit Card';letter-spacing:0px;word-spacing:0px;fill:#000000;fill-opacity:1;stroke:none;stroke-width:0.26458332"
         id="text5332">
        <path
           d="m -8.2597084,156.01326 q 0,0.55309 -0.7423075,0.68409 -0.1455505,0.0146 -0.2765459,0.0291 -0.1309955,0 -0.2474359,0 -0.1164404,0 -0.2474358,0 -0.1309954,-0.0146 -0.2765455,-0.0291 -0.829638,-0.131 -0.829638,-0.65498 0,-0.0728 0.05822,-0.20377 0.05822,-0.131 0.05822,-0.20377 0,-0.55309 -0.756862,-0.55309 -1.659276,0 -1.659276,3.50776 0,1.51373 0.174661,2.1687 0.320211,1.30996 1.397284,1.30996 0.392987,0 0.654978,-0.20377 0.276545,-0.20377 0.276545,-0.53854 0,-0.10188 -0.07278,-0.23288 -0.07278,-0.14555 -0.07278,-0.26199 0,-0.39299 0.320211,-0.49487 0.145551,-0.0437 0.6258672,-0.0437 0.4220964,0 0.6549772,0.0146 0.2474358,0 0.320211,0.0146 0.6113121,0.11644 0.6113121,0.56765 0,0.13099 -0.072775,0.26199 -0.05822,0.11644 -0.1309955,0.23288 -0.072775,0.11644 -0.1601055,0.21833 -0.072775,0.10188 -0.08733,0.18921 -0.7277525,2.18326 -2.896455,2.18326 -2.183257,0 -3.02745,-1.89216 -0.596757,-1.30995 -0.596757,-3.65331 0,-2.05227 0.785973,-3.44955 0.975188,-1.79027 2.99834,-1.79027 2.0813718,0 2.7800141,1.97949 0.02911,0.0873 0.08733,0.18921 0.072775,0.0873 0.1455505,0.20377 0.2037707,0.27655 0.2037707,0.45121 z"
           style="stroke-width:0.26458332"
           id="path14645" />
      </g>
      <g
         aria-label="H"
         style="font-style:normal;font-variant:normal;font-weight:normal;font-stretch:normal;font-size:14.55504894px;line-height:1.25;font-family:'Credit Card';-inkscape-font-specification:'Credit Card';letter-spacing:0px;word-spacing:0px;fill:#000000;fill-opacity:1;stroke:none;stroke-width:0.26458332"
         id="text5336">
        <path
           d="m 1.8978946,154.23754 q 0,0.50943 -0.2765459,0.68409 l -0.043665,0.0291 q -0.2037707,0.11644 -0.2037707,0.52398 v 6.1859 q 0,0.26199 0.2474358,0.50942 0.2474358,0.24744 0.2474358,0.65498 0,0.53854 -0.2328807,0.77142 -0.2328808,0.23288 -0.80052773,0.23288 l -0.69864235,0.0146 q -0.74230749,0 -0.98974333,-0.20377 -0.21832569,-0.20377 -0.21832569,-0.84419 0,-0.40754 0.24743579,-0.62587 0.26199088,-0.23288 0.26199088,-0.52398 v -2.21237 q 0,-0.26199 -0.24743583,-0.26199 H -2.4103998 q -0.2037707,-0.0145 -0.2619909,0.30566 v 2.1687 q 0,0.27655 0.2474358,0.52398 0.2619909,0.21833 0.2619909,0.62587 0,0.65498 -0.2328808,0.84419 -0.2328808,0.20377 -0.9751883,0.20377 -0.02911,0 -0.2037707,0 -0.1746605,0 -0.4948716,-0.0146 -0.5676469,0 -0.8005277,-0.23288 -0.2328808,-0.23288 -0.2328808,-0.77142 0,-0.40754 0.2474358,-0.65498 0.2474359,-0.24743 0.2474359,-0.50942 v -6.1859 q 0,-0.40754 -0.2037707,-0.52398 l -0.043665,-0.0291 q -0.2765459,-0.17466 -0.2765459,-0.68409 0,-0.56764 0.2765459,-0.74231 0.276546,-0.17466 1.2953994,-0.17466 0.6404221,0 0.8441928,0.0437 0.4657616,0.10188 0.5385368,0.52398 0.014555,0.0728 0.014555,0.16011 0,0.0728 0,0.18921 0,0.43665 -0.2619909,0.69864 -0.2474358,0.24744 -0.2474358,0.49488 v 1.60105 q 0,0.30566 0.2328808,0.2911 l 1.63016544,-0.0145 q 0.24743583,0 0.24743583,-0.2911 v -1.5865 q 0,-0.24744 -0.26199088,-0.50943 -0.24743579,-0.27655 -0.24743579,-0.68409 0,-0.37843 0.0727752,-0.55309 0.11644039,-0.24744 0.46576156,-0.30566 0.23288078,-0.0582 0.85874789,-0.0582 0.98974334,0 1.28084434,0.17466 0.2911009,0.17467 0.2911009,0.74231 z"
           style="stroke-width:0.26458332"
           id="path14648" />
      </g>
      <g
         aria-label="A"
         style="font-style:normal;font-variant:normal;font-weight:normal;font-stretch:normal;font-size:14.55504894px;line-height:1.25;font-family:'Credit Card';-inkscape-font-specification:'Credit Card';letter-spacing:0px;word-spacing:0px;fill:#000000;fill-opacity:1;stroke:none;stroke-width:0.26458332"
         id="text5340">
        <path
           d="m 12.135592,163.04335 q 0,0.4221 -0.436652,0.65498 -0.363876,0.20377 -0.742307,0.20377 -1.673831,0 -1.673831,-0.8442 0,-0.13099 0.1455505,-0.43665 0.1601055,-0.36387 0.1601055,-0.53853 0,-0.18922 -0.043665,-0.39299 -0.043665,-0.20377 -0.072775,-0.20377 -0.043665,-0.16011 -0.1455504,-0.17466 H 7.6817466 q -0.08733,0 -0.1455505,0.13099 l -0.1309954,0.62587 q -0.043665,0.21833 0.1309954,0.72775 0.043665,0.131 0.043665,0.20377 0,0.87331 -1.2517342,0.87331 -1.4118398,0 -1.4118398,-0.8442 0,-0.21832 0.3784313,-0.85874 0.1892156,-0.33477 0.305656,-0.58221 0.1164404,-0.24743 0.1455505,-0.43665 l 0.8150828,-3.24577 q 0.5385368,-2.16871 0.5385368,-3.14389 0.014555,-0.0437 -0.014555,-0.131 -0.02911,-0.0873 -0.072775,-0.17466 -0.043665,-0.10189 -0.1018854,-0.18922 -0.043665,-0.10188 -0.05822,-0.17466 -0.02911,-0.14555 0.014555,-0.36387 0.072775,-0.39299 0.5530918,-0.45121 0.072775,-0.0145 1.0625186,-0.0145 0.4512065,0 0.6986424,0.0145 0.2474358,0 0.320211,0.0146 0.4948717,0.0582 0.6113123,0.4512 0.04367,0.17466 0.01456,0.36388 -0.01456,0.1601 -0.116441,0.33476 -0.1018849,0.17467 -0.1018849,0.32022 0,0.42209 1.4846149,6.41877 0.05822,0.34932 0.436652,0.96064 0.305656,0.52398 0.305656,0.90241 z m -3.0128955,-3.34766 -0.4948717,-2.7218 q -0.043665,-0.27654 -0.1455505,-0.27654 -0.1018853,0 -0.1455505,0.27654 l -0.5385368,2.70724 q -0.02911,0.0728 0.05822,0.0728 h 1.2080691 q 0.072775,0 0.05822,-0.0582 z"
           style="stroke-width:0.26458332"
           id="path14651" />
      </g>
      <g
         aria-label="R"
         style="font-style:normal;font-variant:normal;font-weight:normal;font-stretch:normal;font-size:14.55504894px;line-height:1.25;font-family:'Credit Card';-inkscape-font-specification:'Credit Card';letter-spacing:0px;word-spacing:0px;fill:#000000;fill-opacity:1;stroke:none;stroke-width:0.26458332"
         id="text5344">
        <path
           d="m 22.234905,162.97057 q 0,0.65498 -0.392986,0.80053 -0.174661,0.0728 -0.858748,0.0728 -0.684087,0 -0.873303,-0.0582 -0.378431,-0.0873 -0.480317,-0.39298 -0.05822,-0.17466 0.01456,-0.5531 0.08733,-0.40754 0.08733,-0.43665 0,-0.17466 -0.08733,-0.37843 -0.145551,-0.33476 -0.378432,-0.82964 -0.218325,-0.50942 -0.509426,-1.17896 -0.232881,-0.52398 -0.989744,-0.49487 -0.276546,0 -0.276546,0.37843 v 0.80053 q -0.01455,0.26199 -0.01455,0.46576 0,0.18922 0,0.32021 0,0.4221 0.203771,0.80053 0.218326,0.34932 0.218326,0.5822 -0.02911,0.96064 -1.149849,0.96064 -0.931523,0 -1.106184,-0.0582 -0.509427,-0.16011 -0.509427,-0.8442 0,-0.43665 0.247436,-0.77141 0.247436,-0.36388 0.247436,-0.59676 v -5.95302 q 0,-0.26199 -0.261991,-0.68408 -0.261991,-0.40754 -0.261991,-0.69864 0,-0.90242 0.960633,-0.90242 h 2.270588 q 1.49917,0 2.401583,0.74231 1.004299,0.81508 1.004299,2.31425 0,1.80483 -1.251735,2.53258 -0.101885,0.0582 -0.101885,0.18922 0,0.10188 0.11644,0.33476 l 0.727753,1.51373 0.713197,1.25173 q 0.291101,0.53854 0.291101,0.77142 z m -2.416138,-6.56433 q 0,-0.24743 -0.101885,-0.46576 -0.08733,-0.21832 -0.261991,-0.37843 -0.160106,-0.17466 -0.378431,-0.27655 -0.218326,-0.10188 -0.451207,-0.10188 h -0.684087 q -0.451207,0 -0.451207,0.62587 v 1.5865 q 0,0.26199 0.378432,0.2911 h 0.611312 q 0.654977,0 0.989743,-0.37843 0.349321,-0.37844 0.349321,-0.90242 z"
           style="stroke-width:0.26458332"
           id="path14654" />
      </g>
      <g
         aria-label="L"
         style="font-style:normal;font-variant:normal;font-weight:normal;font-stretch:normal;font-size:14.55504894px;line-height:1.25;font-family:'Credit Card';-inkscape-font-specification:'Credit Card';letter-spacing:0px;word-spacing:0px;fill:#000000;fill-opacity:1;stroke:none;stroke-width:0.26458332"
         id="text5348">
        <path
           d="m 32.043174,162.92691 q 0,0.59676 -0.276546,0.78597 -0.20377,0.14555 -0.844192,0.14555 h -4.35196 q -0.960633,0 -0.960633,-1.0043 0,-0.30565 0.247436,-0.66953 0.247435,-0.37843 0.247435,-0.62586 v -5.90935 q 0,-0.39299 -0.261991,-0.64043 -0.26199,-0.23288 -0.26199,-0.7423 0,-0.39299 0.218325,-0.66954 0.218326,-0.2911 0.596757,-0.2911 1.077074,0 1.2954,0.0582 0.742307,0.16011 0.742307,0.87331 0,0.49487 -0.261991,0.66953 -0.261991,0.1601 -0.261991,0.56765 v 6.18589 q 0,0.17466 0.07278,0.26199 0.07278,0.0873 0.17466,0.0873 l 1.368175,-0.0146 q 0.480316,0 0.946078,-0.24744 0.451207,-0.26199 0.669532,-0.26199 0.596757,0 0.800528,0.46576 0.101885,0.21833 0.101885,0.97519 z"
           style="stroke-width:0.26458332"
           id="path14657" />
      </g>
      <g
         aria-label="E"
         style="font-style:normal;font-variant:normal;font-weight:normal;font-stretch:normal;font-size:14.55504894px;line-height:1.25;font-family:'Credit Card';-inkscape-font-specification:'Credit Card';letter-spacing:0px;word-spacing:0px;fill:#000000;fill-opacity:1;stroke:none;stroke-width:0.26458332"
         id="text5352">
        <path
           d="m 42.200172,154.32487 v 0.21833 q -0.01456,0.0728 -0.01456,0.13099 0,0.0437 0,0.0728 0,0.96063 -0.815083,0.93152 -0.20377,0 -0.407541,-0.1601 l -0.11644,-0.10189 q -0.320211,-0.24743 -0.669533,-0.24743 h -1.994041 q -0.189216,0 -0.218326,0.20377 v 1.83393 q 0,0.27655 0.203771,0.20377 h 0.887858 q 0.189215,0 0.480316,-0.21832 0.291101,-0.23288 0.422097,-0.23288 0.975188,0 0.975188,1.36817 0,0.62587 -0.160106,0.94608 -0.247435,0.4221 -0.829637,0.4221 -0.116441,0 -0.392987,-0.21833 -0.291101,-0.21833 -0.480316,-0.21833 h -0.902413 q -0.203771,0.0291 -0.203771,0.21833 v 2.27059 q 0,0.23288 0.320211,0.23288 l 1.368175,-0.0146 q 0.480316,0 0.946078,-0.24743 0.451206,-0.26199 0.669532,-0.26199 0.902413,0 0.902413,0.97518 v 0.46577 q 0,0.62586 -0.320211,0.81508 -0.232881,0.11644 -0.858748,0.11644 h -4.293739 q -0.960634,0 -0.960634,-1.0043 0,-0.33477 0.247436,-0.66953 0.247436,-0.36388 0.247436,-0.62587 v -5.90935 q 0,-0.40754 -0.203771,-0.5822 l -0.05822,-0.0437 q -0.261991,-0.23288 -0.261991,-0.75686 0,-0.90241 1.004299,-0.90241 h 4.759501 q 0.756862,0 0.727752,0.98974 z"
           style="stroke-width:0.26458332"
           id="path14660" />
      </g>
      <g
         aria-label="S"
         style="font-style:normal;font-variant:normal;font-weight:normal;font-stretch:normal;font-size:14.55504894px;line-height:1.25;font-family:'Credit Card';-inkscape-font-specification:'Credit Card';letter-spacing:0px;word-spacing:0px;fill:#000000;fill-opacity:1;stroke:none;stroke-width:0.26458332"
         id="text5356">
        <path
           d="m 52.503905,160.88192 q 0,1.39729 -0.989743,2.25603 -0.946079,0.78598 -2.372473,0.78598 -0.931524,0 -1.746606,-0.50943 -0.873303,-0.55309 -1.120739,-1.41184 -0.04366,-0.16011 -0.320211,-0.48032 -0.261991,-0.32021 -0.261991,-0.53853 0,-0.80053 1.106184,-0.80053 0.873303,0 1.077073,0.0437 0.611312,0.131 0.611312,0.65498 0,0.131 -0.08733,0.30566 -0.08733,0.1601 -0.08733,0.26199 0,0.30565 0.305656,0.49487 0.261991,0.17466 0.582202,0.17466 0.567647,0 0.931523,-0.27655 0.378431,-0.2911 0.378431,-0.82963 0,-0.80053 -1.237179,-1.45551 l -2.285143,-1.22262 q -1.222624,-0.88786 -1.222624,-2.25604 0,-1.3245 0.931523,-2.11048 0.902413,-0.72775 2.241478,-0.72775 1.047963,0 1.790271,0.48032 0.800528,0.52398 1.018853,1.49917 0.04366,0.18921 0.232881,0.50942 0.203771,0.33477 0.203771,0.40755 0,0.72775 -1.004299,0.72775 -0.742307,0 -1.018853,-0.0437 -0.698642,-0.10188 -0.698642,-0.50942 0,-0.14555 0.14555,-0.34933 0.145551,-0.21832 0.145551,-0.36387 0,-0.24744 -0.276546,-0.40754 -0.261991,-0.17466 -0.538537,-0.17466 -0.480317,0 -0.800528,0.23288 -0.378431,0.24743 -0.378431,0.69864 0,0.65498 1.222624,1.28084 1.979487,1.01886 2.285143,1.26629 1.237179,0.96064 1.237179,2.38703 z"
           style="stroke-width:0.26458332"
           id="path14663" />
      </g>
      <g
         aria-label="R"
         style="font-style:normal;font-variant:normal;font-weight:normal;font-stretch:normal;font-size:14.55504894px;line-height:1.25;font-family:'Credit Card';-inkscape-font-specification:'Credit Card';letter-spacing:0px;word-spacing:0px;fill:#000000;fill-opacity:1;stroke:none;stroke-width:0.26458332"
         id="text5360">
        <path
           d="m 164.23739,162.97057 q 0,0.65498 -0.39299,0.80053 -0.17466,0.0728 -0.85875,0.0728 -0.68408,0 -0.8733,-0.0582 -0.37843,-0.0873 -0.48032,-0.39298 -0.0582,-0.17466 0.0146,-0.5531 0.0873,-0.40754 0.0873,-0.43665 0,-0.17466 -0.0873,-0.37843 -0.14555,-0.33476 -0.37843,-0.82964 -0.21833,-0.50942 -0.50943,-1.17896 -0.23288,-0.52398 -0.98974,-0.49487 -0.27655,0 -0.27655,0.37843 v 0.80053 q -0.0145,0.26199 -0.0145,0.46576 0,0.18922 0,0.32021 0,0.4221 0.20377,0.80053 0.21832,0.34932 0.21832,0.5822 -0.0291,0.96064 -1.14985,0.96064 -0.93152,0 -1.10618,-0.0582 -0.50943,-0.16011 -0.50943,-0.8442 0,-0.43665 0.24744,-0.77141 0.24744,-0.36388 0.24744,-0.59676 v -5.95302 q 0,-0.26199 -0.262,-0.68408 -0.26199,-0.40754 -0.26199,-0.69864 0,-0.90242 0.96064,-0.90242 h 2.27058 q 1.49917,0 2.40159,0.74231 1.0043,0.81508 1.0043,2.31425 0,1.80483 -1.25174,2.53258 -0.10188,0.0582 -0.10188,0.18922 0,0.10188 0.11644,0.33476 l 0.72775,1.51373 0.7132,1.25173 q 0.2911,0.53854 0.2911,0.77142 z m -2.41614,-6.56433 q 0,-0.24743 -0.10189,-0.46576 -0.0873,-0.21832 -0.26199,-0.37843 -0.1601,-0.17466 -0.37843,-0.27655 -0.21832,-0.10188 -0.4512,-0.10188 h -0.68409 q -0.45121,0 -0.45121,0.62587 v 1.5865 q 0,0.26199 0.37843,0.2911 h 0.61132 q 0.65497,0 0.98974,-0.37843 0.34932,-0.37844 0.34932,-0.90242 z"
           style="stroke-width:0.26458332"
           id="path14666" />
      </g>
      <g
         aria-label="B"
         style="font-style:normal;font-variant:normal;font-weight:normal;font-stretch:normal;font-size:14.55504894px;line-height:1.25;font-family:'Credit Card';-inkscape-font-specification:'Credit Card';letter-spacing:0px;word-spacing:0px;fill:#000000;fill-opacity:1;stroke:none;stroke-width:0.26458332"
         id="text5364">
        <path
           d="m 154.07257,160.49869 q 0,1.68838 -1.07707,2.54713 -0.97519,0.78597 -2.64902,0.74231 -1.68839,-0.0146 -2.35792,0.0437 -0.97519,0 -0.97519,-1.0043 0,-0.33476 0.24744,-0.66953 0.24743,-0.36388 0.24743,-0.62587 v -5.90935 q 0,-0.40754 -0.20377,-0.5822 l -0.0582,-0.0437 q -0.26199,-0.23288 -0.26199,-0.75687 0,-0.78597 0.96064,-0.81508 l 1.96493,-0.0873 q 1.5865,-0.0582 2.56169,0.56765 1.1644,0.72775 1.1644,2.2997 0,0.55309 -0.30566,1.10618 -0.2911,0.55309 -0.78597,0.84419 -0.14555,0.0873 -0.0145,0.14555 0.52398,0.18922 1.03341,0.90242 0.50942,0.68408 0.50942,1.2954 z m -2.35792,-4.23552 q 0,-0.72776 -0.59675,-0.94608 -0.34932,-0.14555 -1.35362,-0.14555 -0.23288,0.0437 -0.2911,0.10188 -0.10189,0.0582 -0.10189,0.2911 l -0.0145,1.4264 q 0,0.39298 0.49487,0.40754 1.86304,0.0437 1.86304,-1.13529 z m 0.40755,4.23552 q 0,-1.20807 -1.96494,-1.20807 h -0.43665 q -0.36387,0 -0.36387,0.32021 v 1.96493 q 0,0.4221 0.33476,0.37843 h 0.66953 q 1.76117,0 1.76117,-1.4555 z"
           style="stroke-width:0.26458332"
           id="path14669" />
      </g>
      <g
         aria-label="E"
         style="font-style:normal;font-variant:normal;font-weight:normal;font-stretch:normal;font-size:14.55504894px;line-height:1.25;font-family:'Credit Card';-inkscape-font-specification:'Credit Card';letter-spacing:0px;word-spacing:0px;fill:#000000;fill-opacity:1;stroke:none;stroke-width:0.26458332"
         id="text5368">
        <path
           d="m 174.05964,154.32487 v 0.21833 q -0.0146,0.0728 -0.0146,0.13099 0,0.0437 0,0.0728 0,0.96063 -0.81508,0.93152 -0.20377,0 -0.40754,-0.1601 l -0.11644,-0.10189 q -0.32021,-0.24743 -0.66953,-0.24743 h -1.99404 q -0.18922,0 -0.21833,0.20377 v 1.83393 q 0,0.27655 0.20377,0.20377 h 0.88786 q 0.18921,0 0.48031,-0.21832 0.29111,-0.23288 0.4221,-0.23288 0.97519,0 0.97519,1.36817 0,0.62587 -0.16011,0.94608 -0.24743,0.4221 -0.82963,0.4221 -0.11644,0 -0.39299,-0.21833 -0.2911,-0.21833 -0.48032,-0.21833 h -0.90241 q -0.20377,0.0291 -0.20377,0.21833 v 2.27059 q 0,0.23288 0.32021,0.23288 l 1.36818,-0.0146 q 0.48031,0 0.94607,-0.24743 0.45121,-0.26199 0.66954,-0.26199 0.90241,0 0.90241,0.97518 v 0.46577 q 0,0.62586 -0.32021,0.81508 -0.23288,0.11644 -0.85875,0.11644 h -4.29374 q -0.96063,0 -0.96063,-1.0043 0,-0.33477 0.24743,-0.66953 0.24744,-0.36388 0.24744,-0.62587 v -5.90935 q 0,-0.40754 -0.20377,-0.5822 l -0.0582,-0.0437 q -0.26199,-0.23288 -0.26199,-0.75686 0,-0.90241 1.0043,-0.90241 h 4.7595 q 0.75686,0 0.72775,0.98974 z"
           style="stroke-width:0.26458332"
           id="path14672" />
      </g>
      <g
         aria-label="E"
         style="font-style:normal;font-variant:normal;font-weight:normal;font-stretch:normal;font-size:14.55504894px;line-height:1.25;font-family:'Credit Card';-inkscape-font-specification:'Credit Card';letter-spacing:0px;word-spacing:0px;fill:#000000;fill-opacity:1;stroke:none;stroke-width:0.26458332"
         id="text5372">
        <path
           d="m 184.20271,154.32487 v 0.21833 q -0.0146,0.0728 -0.0146,0.13099 0,0.0437 0,0.0728 0,0.96063 -0.81508,0.93152 -0.20377,0 -0.40754,-0.1601 l -0.11644,-0.10189 q -0.32022,-0.24743 -0.66954,-0.24743 h -1.99404 q -0.18921,0 -0.21832,0.20377 v 1.83393 q 0,0.27655 0.20377,0.20377 h 0.88785 q 0.18922,0 0.48032,-0.21832 0.2911,-0.23288 0.4221,-0.23288 0.97519,0 0.97519,1.36817 0,0.62587 -0.16011,0.94608 -0.24744,0.4221 -0.82964,0.4221 -0.11644,0 -0.39298,-0.21833 -0.2911,-0.21833 -0.48032,-0.21833 h -0.90241 q -0.20377,0.0291 -0.20377,0.21833 v 2.27059 q 0,0.23288 0.32021,0.23288 l 1.36817,-0.0146 q 0.48032,0 0.94608,-0.24743 0.45121,-0.26199 0.66953,-0.26199 0.90242,0 0.90242,0.97518 v 0.46577 q 0,0.62586 -0.32022,0.81508 -0.23288,0.11644 -0.85874,0.11644 h -4.29374 q -0.96064,0 -0.96064,-1.0043 0,-0.33477 0.24744,-0.66953 0.24744,-0.36388 0.24744,-0.62587 v -5.90935 q 0,-0.40754 -0.20378,-0.5822 l -0.0582,-0.0437 q -0.26199,-0.23288 -0.26199,-0.75686 0,-0.90241 1.0043,-0.90241 h 4.7595 q 0.75687,0 0.72776,0.98974 z"
           style="stroke-width:0.26458332"
           id="path14675" />
      </g>
      <g
         aria-label="N"
         style="font-style:normal;font-variant:normal;font-weight:normal;font-stretch:normal;font-size:14.55504894px;line-height:1.25;font-family:'Credit Card';-inkscape-font-specification:'Credit Card';letter-spacing:0px;word-spacing:0px;fill:#000000;fill-opacity:1;stroke:none;stroke-width:0.26458332"
         id="text5376">
        <path
           d="m 194.77559,154.24482 q 0,0.46576 -0.26199,0.68409 -0.26199,0.20377 -0.26199,0.39299 v 6.47699 q 0,0.11644 0.23288,0.39299 0.24744,0.2911 0.24744,0.64042 0,0.61131 -0.32021,0.84419 -0.24744,0.18922 -0.88786,0.18922 -0.75686,0 -1.03341,-0.0873 -0.5822,-0.17466 -0.5822,-0.7132 0,-0.10188 0.0437,-0.2911 0.0437,-0.20377 0.0437,-0.30565 0,-0.34933 -0.8733,-2.21237 l -1.09163,-2.31426 q -0.10189,-0.23288 -0.17466,-0.23288 -0.0728,0 -0.0728,0.21833 v 3.94442 q 0,0.0437 0.24744,0.37843 0.24743,0.32021 0.24743,0.74231 0,0.68408 -0.52398,0.82963 -0.1601,0.0437 -1.10618,0.0437 -0.65498,0 -0.90241,-0.18922 -0.32021,-0.21832 -0.32021,-0.82963 0,-0.37843 0.24743,-0.65498 0.24744,-0.27655 0.24744,-0.50943 v -6.18589 q 0,-0.24744 -0.24744,-0.58221 -0.24743,-0.33476 -0.24743,-0.75686 0,-0.82964 0.90241,-0.82964 0.0873,0 0.20377,0 0.13099,-0.0146 0.26199,-0.0146 0.131,0 0.23288,0 0.11644,-0.0146 0.18922,-0.0146 1.06251,0 1.06251,0.96064 0,0.0437 -0.0291,0.13099 -0.0146,0.0873 -0.0146,0.131 0,0.18921 0.90241,2.28514 0.39299,0.90241 0.66953,1.51373 0.29111,0.61131 0.45121,0.94607 0.0437,0.0728 0.10189,0.0728 0.0582,-0.0582 0.0582,-0.10189 v -3.84253 q -0.0291,-0.17466 -0.27655,-0.45121 -0.26199,-0.27654 -0.26199,-0.69864 0,-0.49487 0.18922,-0.69864 0.20377,-0.20377 0.69864,-0.20377 h 0.91697 q 1.09162,0 1.09162,0.90241 z"
           style="stroke-width:0.26458332"
           id="path14678" />
      </g>
      <g
         aria-label="W"
         style="font-style:normal;font-variant:normal;font-weight:normal;font-stretch:normal;font-size:14.55504894px;line-height:1.25;font-family:'Credit Card';-inkscape-font-specification:'Credit Card';letter-spacing:0px;word-spacing:0px;fill:#000000;fill-opacity:1;stroke:none;stroke-width:0.26458332"
         id="text5380">
        <path
           d="m 73.284844,154.36854 q 0,0.10188 -0.218325,0.53853 -0.232881,0.48032 -0.305656,0.94608 l -0.829638,6.25867 -0.02911,0.85875 q -0.02911,0.39299 -0.189216,0.62587 -0.160105,0.24743 -1.077073,0.24743 -0.625868,0 -0.756863,-0.27654 -0.08733,-0.20377 -0.07277,-0.53854 0,-0.20377 -0.01456,-0.34932 0,-0.14555 -0.01456,-0.21833 l -0.276546,-1.14984 q -0.02911,-0.0873 -0.116441,-0.0873 -0.08733,-0.0146 -0.11644,0.0728 -0.07278,0.24744 -0.145551,0.53854 -0.07278,0.2911 -0.130995,0.62586 -0.02911,0.11645 0,0.56765 0.01456,0.32021 -0.11644,0.55309 -0.116441,0.21833 -0.742308,0.21833 -0.931523,0 -1.077073,-0.26199 -0.174661,-0.2911 -0.189216,-0.5822 l -0.02911,-0.88786 -0.829638,-6.25867 q -0.07278,-0.46576 -0.305656,-0.94608 -0.218326,-0.43665 -0.218326,-0.53854 0,-0.64042 0.291101,-0.84419 0.247436,-0.16011 0.887858,-0.16011 h 0.160106 q 0.582202,0 0.829638,0.16011 0.320211,0.21833 0.320211,0.85875 0,-0.0291 -0.02911,0.0873 -0.01456,0.11644 -0.04367,0.39298 -0.04367,0.36388 0.02911,0.69865 l 0.305657,2.35791 q 0.01455,0.20378 0.02911,0.46577 0.01456,0.26199 0.04367,0.5822 0.01456,0.18921 0.11644,0.18921 0.04367,0 0.07278,-0.13099 l 0.203771,-1.81938 q 0.01455,-0.26199 0.174661,-0.33477 0.538536,-0.0873 1.047963,0 0.160106,0.0437 0.174661,0.32021 l 0.189215,1.77572 q 0.01456,0.17466 0.116441,0.17466 0.05822,0 0.08733,-0.17466 0.01456,-0.16011 0.02911,-0.4221 0.01456,-0.26199 0.04367,-0.64042 l 0.276546,-2.2997 q 0.07278,-0.33476 0.02911,-0.69864 -0.02911,-0.27655 -0.04367,-0.39299 -0.01456,-0.11644 -0.01456,-0.0873 0,-0.64042 0.305656,-0.85875 0.247436,-0.1601 0.829638,-0.1601 h 0.174661 q 0.625867,0 0.873303,0.1601 0.2911,0.20378 0.2911,0.8442 z"
           style="stroke-width:0.26458332"
           id="path14681" />
      </g>
      <g
         aria-label="I"
         style="font-style:normal;font-variant:normal;font-weight:normal;font-stretch:normal;font-size:14.55504894px;line-height:1.25;font-family:'Credit Card';-inkscape-font-specification:'Credit Card';letter-spacing:0px;word-spacing:0px;fill:#000000;fill-opacity:1;stroke:none;stroke-width:0.26458332"
         id="text5384">
        <path
           d="m 81.011738,154.24482 q 0,0.45121 -0.276546,0.68409 -0.101885,0.0582 -0.174661,0.14555 -0.07277,0.0873 -0.07277,0.40754 v 6.1859 q 0,0.26199 0.247436,0.50942 0.247436,0.24744 0.247436,0.65498 0,0.53854 -0.174661,0.72775 -0.247436,0.30566 -0.960633,0.30566 l -0.596757,-0.0146 q -1.178959,0 -1.178959,-1.01885 0,-0.40754 0.247436,-0.65498 0.247436,-0.24743 0.247436,-0.50942 v -6.1859 q 0,-0.40754 -0.145551,-0.49487 -0.378431,-0.24744 -0.378431,-0.74231 0,-0.94608 1.149849,-0.94608 0.800528,0 0.800528,0.0146 0.465761,0 0.698642,0.11644 0.320211,0.21832 0.320211,0.81508 z"
           style="stroke-width:0.26458332"
           id="path14684" />
      </g>
      <g
         aria-label="L"
         style="font-style:normal;font-variant:normal;font-weight:normal;font-stretch:normal;font-size:14.55504894px;line-height:1.25;font-family:'Credit Card';-inkscape-font-specification:'Credit Card';letter-spacing:0px;word-spacing:0px;fill:#000000;fill-opacity:1;stroke:none;stroke-width:0.26458332"
         id="text5388">
        <path
           d="m 92.901378,162.92691 q 0,0.59676 -0.276546,0.78597 -0.20377,0.14555 -0.844193,0.14555 H 87.42868 q -0.960633,0 -0.960633,-1.0043 0,-0.30565 0.247435,-0.66953 0.247436,-0.37843 0.247436,-0.62586 v -5.90935 q 0,-0.39299 -0.261991,-0.64043 -0.261991,-0.23288 -0.261991,-0.7423 0,-0.39299 0.218326,-0.66954 0.218326,-0.2911 0.596757,-0.2911 1.077074,0 1.2954,0.0582 0.742307,0.16011 0.742307,0.87331 0,0.49487 -0.261991,0.66953 -0.261991,0.1601 -0.261991,0.56765 v 6.18589 q 0,0.17466 0.07278,0.26199 0.07278,0.0873 0.17466,0.0873 l 1.368175,-0.0146 q 0.480316,0 0.946078,-0.24744 0.451206,-0.26199 0.669532,-0.26199 0.596757,0 0.800528,0.46576 0.101885,0.21833 0.101885,0.97519 z"
           style="stroke-width:0.26458332"
           id="path14687" />
      </g>
      <g
         aria-label="L"
         style="font-style:normal;font-variant:normal;font-weight:normal;font-stretch:normal;font-size:14.55504894px;line-height:1.25;font-family:'Credit Card';-inkscape-font-specification:'Credit Card';letter-spacing:0px;word-spacing:0px;fill:#000000;fill-opacity:1;stroke:none;stroke-width:0.26458332"
         id="text5392">
        <path
           d="m 103.04441,162.92691 q 0,0.59676 -0.27654,0.78597 -0.20377,0.14555 -0.84419,0.14555 h -4.351964 q -0.960634,0 -0.960634,-1.0043 0,-0.30565 0.247436,-0.66953 0.247436,-0.37843 0.247436,-0.62586 v -5.90935 q 0,-0.39299 -0.261991,-0.64043 -0.261991,-0.23288 -0.261991,-0.7423 0,-0.39299 0.218326,-0.66954 0.218326,-0.2911 0.596757,-0.2911 1.077074,0 1.295399,0.0582 0.742308,0.16011 0.742308,0.87331 0,0.49487 -0.261991,0.66953 -0.261991,0.1601 -0.261991,0.56765 v 6.18589 q 0,0.17466 0.07277,0.26199 0.07278,0.0873 0.174661,0.0873 l 1.368174,-0.0146 q 0.48032,0 0.94608,-0.24744 0.45121,-0.26199 0.66953,-0.26199 0.59676,0 0.80053,0.46576 0.10188,0.21833 0.10188,0.97519 z"
           style="stroke-width:0.26458332"
           id="path14690" />
      </g>
      <g
         aria-label="I"
         style="font-style:normal;font-variant:normal;font-weight:normal;font-stretch:normal;font-size:14.55504894px;line-height:1.25;font-family:'Credit Card';-inkscape-font-specification:'Credit Card';letter-spacing:0px;word-spacing:0px;fill:#000000;fill-opacity:1;stroke:none;stroke-width:0.26458332"
         id="text5396">
        <path
           d="m 111.44085,154.24482 q 0,0.45121 -0.27655,0.68409 -0.10189,0.0582 -0.17466,0.14555 -0.0728,0.0873 -0.0728,0.40754 v 6.1859 q 0,0.26199 0.24744,0.50942 0.24744,0.24744 0.24744,0.65498 0,0.53854 -0.17467,0.72775 -0.24743,0.30566 -0.96063,0.30566 l -0.59676,-0.0146 q -1.17895,0 -1.17895,-1.01885 0,-0.40754 0.24743,-0.65498 0.24744,-0.24743 0.24744,-0.50942 v -6.1859 q 0,-0.40754 -0.14555,-0.49487 -0.37843,-0.24744 -0.37843,-0.74231 0,-0.94608 1.14984,-0.94608 0.80053,0 0.80053,0.0146 0.46576,0 0.69864,0.11644 0.32022,0.21832 0.32022,0.81508 z"
           style="stroke-width:0.26458332"
           id="path14693" />
      </g>
      <g
         aria-label="A"
         style="font-style:normal;font-variant:normal;font-weight:normal;font-stretch:normal;font-size:14.55504894px;line-height:1.25;font-family:'Credit Card';-inkscape-font-specification:'Credit Card';letter-spacing:0px;word-spacing:0px;fill:#000000;fill-opacity:1;stroke:none;stroke-width:0.26458332"
         id="text5400">
        <path
           d="m 123.70892,163.04335 q 0,0.4221 -0.43666,0.65498 -0.36387,0.20377 -0.7423,0.20377 -1.67383,0 -1.67383,-0.8442 0,-0.13099 0.14555,-0.43665 0.1601,-0.36387 0.1601,-0.53853 0,-0.18922 -0.0437,-0.39299 -0.0437,-0.20377 -0.0728,-0.20377 -0.0437,-0.16011 -0.14555,-0.17466 h -1.64472 q -0.0873,0 -0.14555,0.13099 l -0.131,0.62587 q -0.0437,0.21833 0.131,0.72775 0.0437,0.131 0.0437,0.20377 0,0.87331 -1.25174,0.87331 -1.41184,0 -1.41184,-0.8442 0,-0.21832 0.37843,-0.85874 0.18922,-0.33477 0.30566,-0.58221 0.11644,-0.24743 0.14555,-0.43665 l 0.81508,-3.24577 q 0.53854,-2.16871 0.53854,-3.14389 0.0145,-0.0437 -0.0146,-0.131 -0.0291,-0.0873 -0.0728,-0.17466 -0.0437,-0.10189 -0.10189,-0.18922 -0.0437,-0.10188 -0.0582,-0.17466 -0.0291,-0.14555 0.0146,-0.36387 0.0728,-0.39299 0.55309,-0.45121 0.0728,-0.0145 1.06252,-0.0145 0.4512,0 0.69864,0.0145 0.24744,0 0.32021,0.0146 0.49487,0.0582 0.61131,0.4512 0.0437,0.17466 0.0146,0.36388 -0.0146,0.1601 -0.11644,0.33476 -0.10189,0.17467 -0.10189,0.32022 0,0.42209 1.48462,6.41877 0.0582,0.34932 0.43665,0.96064 0.30566,0.52398 0.30566,0.90241 z m -3.0129,-3.34766 -0.49487,-2.7218 q -0.0437,-0.27654 -0.14555,-0.27654 -0.10189,0 -0.14555,0.27654 l -0.53854,2.70724 q -0.0291,0.0728 0.0582,0.0728 h 1.20807 q 0.0728,0 0.0582,-0.0582 z"
           style="stroke-width:0.26458332"
           id="path14696" />
      </g>
      <g
         aria-label="M"
         style="font-style:normal;font-variant:normal;font-weight:normal;font-stretch:normal;font-size:14.55504894px;line-height:1.25;font-family:'Credit Card';-inkscape-font-specification:'Credit Card';letter-spacing:0px;word-spacing:0px;fill:#000000;fill-opacity:1;stroke:none;stroke-width:0.26458332"
         id="text5404">
        <path
           d="m 133.88813,162.98513 q 0.0146,0.40754 -0.20377,0.59675 -0.0873,0.0728 -0.43665,0.17466 -0.24744,0.0728 -0.77142,0.0728 -0.80053,0 -1.03341,-0.131 -0.34932,-0.18921 -0.30566,-0.85874 0,-0.0873 0.0582,-0.20377 0.0728,-0.11644 0.14555,-0.262 0.0873,-0.1601 0.14556,-0.34932 0.0728,-0.18921 0.0728,-0.43665 l 0.0146,-3.27488 q 0.0145,-0.17466 -0.0873,-0.17466 -0.0728,0 -0.11645,0.11644 l -0.66953,2.06681 q -0.11644,0.33477 -0.48031,0.33477 -0.40755,0 -0.52399,-0.33477 -0.0145,-0.0291 -0.17466,-0.52398 -0.14555,-0.50943 -0.46576,-1.48461 -0.0291,-0.131 -0.10188,-0.131 -0.0873,0 -0.0873,0.16011 v 3.31855 q 0,0.2911 0.20377,0.69864 0.21832,0.39299 0.21832,0.50943 0,0.5822 -0.46576,0.84419 -0.23288,0.11644 -0.88786,0.11644 -0.82963,0 -1.01885,-0.10189 -0.33477,-0.20377 -0.32021,-1.01885 0,-0.10188 0.20377,-0.46576 0.20377,-0.37843 0.18922,-0.81508 v -6.25867 q -0.0146,-0.24744 -0.16011,-0.48032 -0.131,-0.24744 -0.14555,-0.64042 0,-0.17466 0.14555,-0.37843 0.18922,-0.32022 0.49487,-0.32022 h 0.30566 0.49487 0.61131 q 0.36388,0.0437 0.52398,0.34933 0.0873,0.20377 0.0437,0.43665 -0.0291,0.18921 -0.0582,0.30565 -0.0146,0.10189 -0.0146,0.14555 0,0.23288 0.10189,0.48032 l 0.62587,1.70294 q 0.10188,0.30566 0.2911,0.30566 0.20377,0 0.33476,-0.36388 l 0.65498,-1.80483 q 0.0437,-0.10188 0.0437,-0.20377 0,-0.10188 -0.0582,-0.30565 -0.0437,-0.21833 -0.0437,-0.33477 0,-0.30565 0.23288,-0.5822 0.131,-0.131 0.52398,-0.14555 h 0.91697 q 0.55309,0 0.74231,0.1601 0.18921,0.16011 0.18921,0.58221 0,0.0582 -0.17466,0.40754 -0.1601,0.34932 -0.1601,0.68409 v 6.33144 q 0,0.34932 0.17466,0.74231 0.0873,0.13099 0.1601,0.26199 0.0728,0.11644 0.10189,0.48032 z"
           style="stroke-width:0.26458332"
           id="path14699" />
      </g>
    </g>
  </g>
</svg>
