<?xml version="1.0" encoding="UTF-8" standalone="no"?>
<!-- Created with Inkscape (http://www.inkscape.org/) -->

<svg
   xmlns:dc="http://purl.org/dc/elements/1.1/"
   xmlns:cc="http://creativecommons.org/ns#"
   xmlns:rdf="http://www.w3.org/1999/02/22-rdf-syntax-ns#"
   xmlns:svg="http://www.w3.org/2000/svg"
   xmlns="http://www.w3.org/2000/svg"
   xmlns:sodipodi="http://sodipodi.sourceforge.net/DTD/sodipodi-0.dtd"
   xmlns:inkscape="http://www.inkscape.org/namespaces/inkscape"
   width="342.22mm"
   height="215.47185mm"
   viewBox="0 0 342.22 215.47185"
   version="1.1"
   id="svg1719"
   inkscape:version="0.92.5 (2060ec1f9f, 2020-04-08)"
   sodipodi:docname="card-front--no-embossing.svg">
  <defs
     id="defs1713" />
  <sodipodi:namedview
     id="base"
     pagecolor="#ffffff"
     bordercolor="#666666"
     borderopacity="1.0"
     inkscape:pageopacity="0"
     inkscape:pageshadow="2"
     inkscape:zoom="1.0572437"
     inkscape:cx="646.71496"
     inkscape:cy="407.19089"
     inkscape:document-units="mm"
     inkscape:current-layer="g936"
     showgrid="false"
     fit-margin-top="0"
     fit-margin-left="0"
     fit-margin-right="0"
     fit-margin-bottom="0"
     showborder="false"
     inkscape:window-width="1920"
     inkscape:window-height="1024"
     inkscape:window-x="0"
     inkscape:window-y="32"
     inkscape:window-maximized="1" />
  <metadata
     id="metadata1716">
    <rdf:RDF>
      <cc:Work
         rdf:about="">
        <dc:format>image/svg+xml</dc:format>
        <dc:type
           rdf:resource="http://purl.org/dc/dcmitype/StillImage" />
        <dc:title></dc:title>
      </cc:Work>
    </rdf:RDF>
  </metadata>
  <g
     inkscape:label="Layer 1"
     inkscape:groupmode="layer"
     id="layer1"
     transform="translate(821.72487,123.99963)">
    <g
       transform="translate(-1.0095415,100.61898)"
       id="g936">
      <rect
         style="opacity:1;fill:#d0d0ce;fill-opacity:1;stroke:none;stroke-width:31.93857765;stroke-miterlimit:4;stroke-dasharray:none;stroke-opacity:1"
         id="rect874-9-9-0-4-4-6-3-2-7"
         width="342.22"
         height="215.47185"
         x="-820.71533"
         y="-224.61861" />
      <g
         transform="translate(-921.95626,-254.924)"
         aria-label="FEDERAL SECURITY BANK"
         style="font-style:normal;font-variant:normal;font-weight:normal;font-stretch:normal;font-size:16.20515823px;line-height:1.25;font-family:Montserrat;-inkscape-font-specification:Montserrat;letter-spacing:0px;word-spacing:4.16402102px;opacity:1;fill:#003057;fill-opacity:1;stroke:none;stroke-width:0.41800183"
         id="text2489-8-6">
        <path
           inkscape:connector-curvature="0"
           d="m 158.6807,125.49637 v 1.94462 h 4.7319 v 2.88451 h -4.7319 v 3.62996 h -3.82442 v -11.34361 h 9.22074 v 2.88452 z"
           style="font-style:normal;font-variant:normal;font-weight:900;font-stretch:normal;font-size:16.20515823px;font-family:Montserrat;-inkscape-font-specification:'Montserrat Heavy';word-spacing:4.16402102px;fill:#003057;fill-opacity:1;stroke-width:0.41800183"
           id="path14800" />
        <path
           inkscape:connector-curvature="0"
           d="m 174.72379,131.07094 v 2.88452 h -9.4314 v -11.34361 h 9.22073 v 2.88452 h -5.46113 v 1.32882 h 4.79672 v 2.75488 h -4.79672 v 1.49087 z"
           style="font-style:normal;font-variant:normal;font-weight:900;font-stretch:normal;font-size:16.20515823px;font-family:Montserrat;-inkscape-font-specification:'Montserrat Heavy';word-spacing:4.16402102px;fill:#003057;fill-opacity:1;stroke-width:0.41800183"
           id="path14802" />
        <path
           inkscape:connector-curvature="0"
           d="m 176.19843,122.61185 h 5.59078 q 1.89601,0 3.33827,0.69682 1.45846,0.68062 2.25251,1.96082 0.81026,1.28021 0.81026,3.01416 0,1.73396 -0.81026,3.01416 -0.79405,1.28021 -2.25251,1.97703 -1.44226,0.68062 -3.33827,0.68062 h -5.59078 z m 5.42873,8.36186 q 1.23159,0 1.96083,-0.69682 0.74543,-0.71303 0.74543,-1.99324 0,-1.2802 -0.74543,-1.97703 -0.72924,-0.71302 -1.96083,-0.71302 h -1.60431 v 5.38011 z"
           style="font-style:normal;font-variant:normal;font-weight:900;font-stretch:normal;font-size:16.20515823px;font-family:Montserrat;-inkscape-font-specification:'Montserrat Heavy';word-spacing:4.16402102px;fill:#003057;fill-opacity:1;stroke-width:0.41800183"
           id="path14804" />
        <path
           inkscape:connector-curvature="0"
           d="m 199.01527,131.07094 v 2.88452 h -9.4314 v -11.34361 h 9.22073 v 2.88452 h -5.46114 v 1.32882 h 4.79673 v 2.75488 h -4.79673 v 1.49087 z"
           style="font-style:normal;font-variant:normal;font-weight:900;font-stretch:normal;font-size:16.20515823px;font-family:Montserrat;-inkscape-font-specification:'Montserrat Heavy';word-spacing:4.16402102px;fill:#003057;fill-opacity:1;stroke-width:0.41800183"
           id="path14806" />
        <path
           inkscape:connector-curvature="0"
           d="m 205.35146,131.10335 h -1.03713 v 2.85211 h -3.82442 v -11.34361 h 5.46114 q 1.5719,0 2.73867,0.51856 1.16677,0.51857 1.79878,1.49088 0.632,0.97231 0.632,2.26872 0,1.21539 -0.55098,2.12288 -0.55097,0.90749 -1.5881,1.44226 l 2.38215,3.50031 h -4.0837 z m 1.91221,-4.21334 q 0,-0.632 -0.38892,-0.97231 -0.38893,-0.35651 -1.16678,-0.35651 h -1.39364 v 2.65764 h 1.39364 q 0.77785,0 1.16678,-0.3403 0.38892,-0.35652 0.38892,-0.98852 z"
           style="font-style:normal;font-variant:normal;font-weight:900;font-stretch:normal;font-size:16.20515823px;font-family:Montserrat;-inkscape-font-specification:'Montserrat Heavy';word-spacing:4.16402102px;fill:#003057;fill-opacity:1;stroke-width:0.41800183"
           id="path14808" />
        <path
           inkscape:connector-curvature="0"
           d="m 220.2926,131.97843 h -4.31057 l -0.76164,1.97703 h -3.88924 l 4.95878,-11.34361 h 3.75959 l 4.95878,11.34361 h -3.95406 z m -1.05334,-2.75488 -1.10195,-2.8521 -1.10195,2.8521 z"
           style="font-style:normal;font-variant:normal;font-weight:900;font-stretch:normal;font-size:16.20515823px;font-family:Montserrat;-inkscape-font-specification:'Montserrat Heavy';word-spacing:4.16402102px;fill:#003057;fill-opacity:1;stroke-width:0.41800183"
           id="path14810" />
        <path
           inkscape:connector-curvature="0"
           d="m 225.6241,122.61185 h 3.82441 v 8.37807 h 5.12083 v 2.96554 h -8.94524 z"
           style="font-style:normal;font-variant:normal;font-weight:900;font-stretch:normal;font-size:16.20515823px;font-family:Montserrat;-inkscape-font-specification:'Montserrat Heavy';word-spacing:4.16402102px;fill:#003057;fill-opacity:1;stroke-width:0.41800183"
           id="path14812" />
        <path
           inkscape:connector-curvature="0"
           d="m 248.87776,134.21474 q -1.40985,0 -2.75488,-0.3079 -1.32882,-0.3241 -2.1877,-0.85887 l 1.2316,-2.78729 q 0.81025,0.46995 1.81497,0.76165 1.00472,0.27548 1.92842,0.27548 0.79405,0 1.13436,-0.14584 0.34031,-0.16205 0.34031,-0.46995 0,-0.35652 -0.45375,-0.53477 -0.43754,-0.17826 -1.45846,-0.38893 -1.31262,-0.27548 -2.1877,-0.58338 -0.87508,-0.32411 -1.52328,-1.03713 -0.64821,-0.72923 -0.64821,-1.96083 0,-1.06954 0.59959,-1.94462 0.59959,-0.87507 1.78257,-1.37743 1.19918,-0.50236 2.90072,-0.50236 1.16677,0 2.28493,0.25928 1.13436,0.24308 1.99323,0.72923 l -1.15056,2.77108 q -1.66913,-0.84267 -3.16001,-0.84267 -1.47467,0 -1.47467,0.71303 0,0.34031 0.43754,0.51857 0.43754,0.16205 1.44226,0.35651 1.29641,0.24308 2.1877,0.56718 0.89128,0.3079 1.53949,1.02093 0.66441,0.71302 0.66441,1.94461 0,1.06955 -0.59959,1.94462 -0.59959,0.85888 -1.79877,1.37744 -1.18298,0.50236 -2.88452,0.50236 z"
           style="font-style:normal;font-variant:normal;font-weight:900;font-stretch:normal;font-size:16.20515823px;font-family:Montserrat;-inkscape-font-specification:'Montserrat Heavy';word-spacing:4.16402102px;fill:#003057;fill-opacity:1;stroke-width:0.41800183"
           id="path14814" />
        <path
           inkscape:connector-curvature="0"
           d="m 264.7264,131.07094 v 2.88452 h -9.43141 v -11.34361 h 9.22074 v 2.88452 h -5.46114 v 1.32882 h 4.79673 v 2.75488 h -4.79673 v 1.49087 z"
           style="font-style:normal;font-variant:normal;font-weight:900;font-stretch:normal;font-size:16.20515823px;font-family:Montserrat;-inkscape-font-specification:'Montserrat Heavy';word-spacing:4.16402102px;fill:#003057;fill-opacity:1;stroke-width:0.41800183"
           id="path14816" />
        <path
           inkscape:connector-curvature="0"
           d="m 272.06731,134.21474 q -1.79878,0 -3.24104,-0.74544 -1.44226,-0.76164 -2.26872,-2.10667 -0.81026,-1.36123 -0.81026,-3.07898 0,-1.71774 0.81026,-3.06277 0.82646,-1.36123 2.26872,-2.10667 1.44226,-0.76164 3.24104,-0.76164 1.65292,0 2.94933,0.58338 1.29642,0.58339 2.13908,1.68534 l -2.41456,2.15528 q -1.05334,-1.32882 -2.47939,-1.32882 -1.19918,0 -1.92842,0.77785 -0.72923,0.76164 -0.72923,2.05805 0,1.29642 0.72923,2.07426 0.72924,0.76165 1.92842,0.76165 1.42605,0 2.47939,-1.32883 l 2.41456,2.15529 q -0.84266,1.10195 -2.13908,1.68534 -1.29641,0.58338 -2.94933,0.58338 z"
           style="font-style:normal;font-variant:normal;font-weight:900;font-stretch:normal;font-size:16.20515823px;font-family:Montserrat;-inkscape-font-specification:'Montserrat Heavy';word-spacing:4.16402102px;fill:#003057;fill-opacity:1;stroke-width:0.41800183"
           id="path14818" />
        <path
           inkscape:connector-curvature="0"
           d="m 283.52434,134.21474 q -2.60903,0 -4.06749,-1.40985 -1.45847,-1.40985 -1.45847,-3.95406 v -6.23898 h 3.82442 v 6.12555 q 0,1.2478 0.43754,1.81498 0.45374,0.56718 1.29641,0.56718 0.84267,0 1.28021,-0.56718 0.45375,-0.56718 0.45375,-1.81498 v -6.12555 h 3.75959 v 6.23898 q 0,2.54421 -1.45846,3.95406 -1.45847,1.40985 -4.0675,1.40985 z"
           style="font-style:normal;font-variant:normal;font-weight:900;font-stretch:normal;font-size:16.20515823px;font-family:Montserrat;-inkscape-font-specification:'Montserrat Heavy';word-spacing:4.16402102px;fill:#003057;fill-opacity:1;stroke-width:0.41800183"
           id="path14820" />
        <path
           inkscape:connector-curvature="0"
           d="m 295.66198,131.10335 h -1.03713 v 2.85211 h -3.82442 v -11.34361 h 5.46114 q 1.5719,0 2.73867,0.51856 1.16677,0.51857 1.79878,1.49088 0.632,0.97231 0.632,2.26872 0,1.21539 -0.55098,2.12288 -0.55097,0.90749 -1.5881,1.44226 l 2.38215,3.50031 h -4.0837 z m 1.91221,-4.21334 q 0,-0.632 -0.38892,-0.97231 -0.38893,-0.35651 -1.16678,-0.35651 h -1.39364 v 2.65764 h 1.39364 q 0.77785,0 1.16678,-0.3403 0.38892,-0.35652 0.38892,-0.98852 z"
           style="font-style:normal;font-variant:normal;font-weight:900;font-stretch:normal;font-size:16.20515823px;font-family:Montserrat;-inkscape-font-specification:'Montserrat Heavy';word-spacing:4.16402102px;fill:#003057;fill-opacity:1;stroke-width:0.41800183"
           id="path14822" />
        <path
           inkscape:connector-curvature="0"
           d="m 302.87326,122.61185 h 3.82442 v 11.34361 h -3.82442 z"
           style="font-style:normal;font-variant:normal;font-weight:900;font-stretch:normal;font-size:16.20515823px;font-family:Montserrat;-inkscape-font-specification:'Montserrat Heavy';word-spacing:4.16402102px;fill:#003057;fill-opacity:1;stroke-width:0.41800183"
           id="path14824" />
        <path
           inkscape:connector-curvature="0"
           d="m 311.00822,125.57739 h -3.32206 v -2.96554 h 10.46853 v 2.96554 h -3.32206 v 8.37807 h -3.82441 z"
           style="font-style:normal;font-variant:normal;font-weight:900;font-stretch:normal;font-size:16.20515823px;font-family:Montserrat;-inkscape-font-specification:'Montserrat Heavy';word-spacing:4.16402102px;fill:#003057;fill-opacity:1;stroke-width:0.41800183"
           id="path14826" />
        <path
           inkscape:connector-curvature="0"
           d="m 325.56044,129.83935 v 4.11611 h -3.82442 v -4.16473 l -4.27816,-7.17888 h 4.03509 l 2.31733,3.92165 2.33355,-3.92165 h 3.69477 z"
           style="font-style:normal;font-variant:normal;font-weight:900;font-stretch:normal;font-size:16.20515823px;font-family:Montserrat;-inkscape-font-specification:'Montserrat Heavy';word-spacing:4.16402102px;fill:#003057;fill-opacity:1;stroke-width:0.41800183"
           id="path14828" />
        <path
           inkscape:connector-curvature="0"
           d="m 348.42519,128.02437 q 1.00472,0.37272 1.55569,1.08575 0.55098,0.71302 0.55098,1.71774 0,1.49088 -1.23159,2.31734 -1.2316,0.81026 -3.56514,0.81026 h -6.38483 v -11.34361 h 6.06073 q 2.26872,0 3.41929,0.81026 1.16677,0.81025 1.16677,2.15528 0,0.79406 -0.40513,1.42606 -0.38892,0.632 -1.16677,1.02092 z m -5.31529,-2.73867 v 1.68534 h 1.78256 q 1.2478,0 1.2478,-0.84267 0,-0.84267 -1.2478,-0.84267 z m 2.30113,5.99591 q 1.264,0 1.264,-0.89129 0,-0.89128 -1.264,-0.89128 h -2.30113 v 1.78257 z"
           style="font-style:normal;font-variant:normal;font-weight:900;font-stretch:normal;font-size:16.20515823px;font-family:Montserrat;-inkscape-font-specification:'Montserrat Heavy';word-spacing:4.16402102px;fill:#003057;fill-opacity:1;stroke-width:0.41800183"
           id="path14830" />
        <path
           inkscape:connector-curvature="0"
           d="m 359.60673,131.97843 h -4.31058 l -0.76164,1.97703 h -3.88924 l 4.95878,-11.34361 h 3.7596 l 4.95878,11.34361 h -3.95406 z m -1.05334,-2.75488 -1.10195,-2.8521 -1.10195,2.8521 z"
           style="font-style:normal;font-variant:normal;font-weight:900;font-stretch:normal;font-size:16.20515823px;font-family:Montserrat;-inkscape-font-specification:'Montserrat Heavy';word-spacing:4.16402102px;fill:#003057;fill-opacity:1;stroke-width:0.41800183"
           id="path14832" />
        <path
           inkscape:connector-curvature="0"
           d="m 376.11978,122.61185 v 11.34361 h -3.1438 l -4.31057,-5.15324 v 5.15324 h -3.72719 v -11.34361 h 3.1438 l 4.31057,5.15324 v -5.15324 z"
           style="font-style:normal;font-variant:normal;font-weight:900;font-stretch:normal;font-size:16.20515823px;font-family:Montserrat;-inkscape-font-specification:'Montserrat Heavy';word-spacing:4.16402102px;fill:#003057;fill-opacity:1;stroke-width:0.41800183"
           id="path14834" />
        <path
           inkscape:connector-curvature="0"
           d="m 382.58562,130.19586 -0.85887,0.95611 v 2.80349 h -3.7596 v -11.34361 h 3.7596 v 4.11611 l 3.72718,-4.11611 h 4.16473 l -4.53744,4.99119 4.76431,6.35242 h -4.42401 z"
           style="font-style:normal;font-variant:normal;font-weight:900;font-stretch:normal;font-size:16.20515823px;font-family:Montserrat;-inkscape-font-specification:'Montserrat Heavy';word-spacing:4.16402102px;fill:#003057;fill-opacity:1;stroke-width:0.41800183"
           id="path14836" />
      </g>
      <g
         id="g9536"
         style="opacity:1"
         transform="translate(-747.37675,-200.78394)">
        <path
           id="rect3573-7"
           d="M 132.80679,-7.9338093 V -2.9335967 47.280393 L 166.73135,8.8842877 v 8.7663893 l -33.92456,38.396621 v 1.365293 4.999693 h 4.9997 21.30568 21.30568 c 2.77,0 4.9997,-2.229694 4.9997,-4.999693 V 29.238083 a 5,5 0 0 0 -4.9997,-4.999694 5,5 0 0 0 4.9997,-5.000212 V -2.9335967 c 0,-2.7699996 -2.2297,-5.0002126 -4.9997,-5.0002126 h -21.30568 -21.30568 z"
           style="opacity:1;fill:#003057;fill-opacity:1;stroke:none;stroke-width:1;stroke-miterlimit:4;stroke-dasharray:none;stroke-opacity:1"
           inkscape:connector-curvature="0" />
        <path
           id="rect1183-4-0"
           d="m 76.080698,-7.9336293 c -2.55667,0 -4.61516,2.2412313 -4.61516,5.024905 V 36.529058 L 124.07617,6.0720577 v -8.980782 c 0,-2.7836737 -2.05844,-5.024905 -4.61511,-5.024905 z M 124.07617,14.815372 71.465538,45.272851 v 12.114887 c 0,2.783714 2.05849,5.024425 4.61516,5.024425 h 43.380362 c 2.55667,0 4.61511,-2.240711 4.61511,-5.024425 z"
           style="opacity:1;fill:#003057;fill-opacity:1;stroke:none;stroke-width:1.92619157;stroke-miterlimit:4;stroke-dasharray:none;stroke-opacity:1"
           inkscape:connector-curvature="0"
           sodipodi:nodetypes="ssccsssccssssc" />
        <path
           sodipodi:nodetypes="ssccsssccssccssccccccc"
           inkscape:connector-curvature="0"
           id="rect2497-0-6-8-9-1"
           d="m 14.119438,-7.9337363 c -2.21285,0 -3.99418,1.7811969 -3.99418,3.994183 V 31.141112 L 62.734908,9.4156647 v -13.355218 c 0,-2.2129861 -1.78113,-3.994183 -3.99419,-3.994183 z m 48.61547,26.0849873 -52.60965,21.725447 v 18.540426 c 0,2.212913 1.78133,3.994183 3.99418,3.994183 h 5.93035 3.64743 5.5857 c 2.21285,0 3.99419,-1.781228 3.99419,-3.994183 v -6.929436 -2.167383 -8.756237 l 27.30487,-11.27659 v 0 c 1.25407,-0.562776 2.13623,-2.015998 2.13623,-3.122729 z"
           style="opacity:1;fill:#003057;fill-opacity:1;stroke:none;stroke-width:3.99449301;stroke-miterlimit:4;stroke-dasharray:none;stroke-opacity:1" />
      </g>
      <g
         transform="translate(-747.37675,-200.78394)"
         id="g9576"
         style="opacity:1">
        <g
           aria-label="VALID THRU "
           style="font-style:normal;font-variant:normal;font-weight:bold;font-stretch:normal;font-size:10.58333302px;line-height:1.25;font-family:'Liberation Sans';-inkscape-font-specification:'Liberation Sans Bold';letter-spacing:0px;word-spacing:0px;opacity:1;fill:#003057;fill-opacity:1;stroke:none;stroke-width:0.21100345"
           id="text1513-3-4-7-6-3-1">
          <path
             inkscape:connector-curvature="0"
             d="m 140.25578,133.70557 h -1.54512 l -2.69234,-7.28121 h 1.59163 l 1.49862,4.67671 q 0.13952,0.45476 0.3824,1.3746 l 0.10852,-0.44442 0.26355,-0.93018 1.49345,-4.67671 h 1.57613 z"
             style="font-style:normal;font-variant:normal;font-weight:bold;font-stretch:normal;font-size:10.58333302px;font-family:'Liberation Sans';-inkscape-font-specification:'Liberation Sans Bold';fill:#003057;fill-opacity:1;stroke-width:0.21100345"
             id="path14714" />
          <path
             inkscape:connector-curvature="0"
             d="m 148.07443,133.70557 -0.64596,-1.86036 h -2.77502 l -0.64596,1.86036 h -1.52445 l 2.65617,-7.28121 h 1.79834 l 2.64583,7.28121 z m -2.03605,-6.15983 -0.031,0.11368 q -0.0517,0.18604 -0.12402,0.42375 -0.0724,0.23771 -0.88884,2.61483 h 2.0929 l -0.71831,-2.0929 -0.2222,-0.7028 z"
             style="font-style:normal;font-variant:normal;font-weight:bold;font-stretch:normal;font-size:10.58333302px;font-family:'Liberation Sans';-inkscape-font-specification:'Liberation Sans Bold';fill:#003057;fill-opacity:1;stroke-width:0.21100345"
             id="path14716" />
          <path
             inkscape:connector-curvature="0"
             d="m 150.5704,133.70557 v -7.28121 h 1.52445 v 6.10298 h 3.90674 v 1.17823 z"
             style="font-style:normal;font-variant:normal;font-weight:bold;font-stretch:normal;font-size:10.58333302px;font-family:'Liberation Sans';-inkscape-font-specification:'Liberation Sans Bold';fill:#003057;fill-opacity:1;stroke-width:0.21100345"
             id="path14718" />
          <path
             inkscape:connector-curvature="0"
             d="m 157.03512,133.70557 v -7.28121 h 1.52445 v 7.28121 z"
             style="font-style:normal;font-variant:normal;font-weight:bold;font-stretch:normal;font-size:10.58333302px;font-family:'Liberation Sans';-inkscape-font-specification:'Liberation Sans Bold';fill:#003057;fill-opacity:1;stroke-width:0.21100345"
             id="path14720" />
          <path
             inkscape:connector-curvature="0"
             d="m 166.46607,130.0107 q 0,1.12655 -0.44442,1.96887 -0.43925,0.83716 -1.25057,1.28158 -0.80615,0.44442 -1.85001,0.44442 h -2.94556 v -7.28121 h 2.6355 q 1.83968,0 2.84737,0.93017 1.00769,0.92501 1.00769,2.65617 z m -1.53479,0 q 0,-1.17305 -0.60978,-1.788 -0.60979,-0.62012 -1.7415,-0.62012 h -1.08004 v 4.92476 h 1.29191 q 0.98186,0 1.56063,-0.67696 0.57878,-0.67696 0.57878,-1.83968 z"
             style="font-style:normal;font-variant:normal;font-weight:bold;font-stretch:normal;font-size:10.58333302px;font-family:'Liberation Sans';-inkscape-font-specification:'Liberation Sans Bold';fill:#003057;fill-opacity:1;stroke-width:0.21100345"
             id="path14722" />
          <path
             inkscape:connector-curvature="0"
             d="m 173.84546,127.60258 v 6.10299 h -1.52445 v -6.10299 h -2.35128 v -1.17822 h 6.23218 v 1.17822 z"
             style="font-style:normal;font-variant:normal;font-weight:bold;font-stretch:normal;font-size:10.58333302px;font-family:'Liberation Sans';-inkscape-font-specification:'Liberation Sans Bold';fill:#003057;fill-opacity:1;stroke-width:0.21100345"
             id="path14724" />
          <path
             inkscape:connector-curvature="0"
             d="m 181.72095,133.70557 v -3.12126 h -3.17293 v 3.12126 h -1.52446 v -7.28121 h 1.52446 v 2.89905 h 3.17293 v -2.89905 h 1.52446 v 7.28121 z"
             style="font-style:normal;font-variant:normal;font-weight:bold;font-stretch:normal;font-size:10.58333302px;font-family:'Liberation Sans';-inkscape-font-specification:'Liberation Sans Bold';fill:#003057;fill-opacity:1;stroke-width:0.21100345"
             id="path14726" />
          <path
             inkscape:connector-curvature="0"
             d="m 189.66879,133.70557 -1.68982,-2.76469 h -1.78801 v 2.76469 h -1.52445 v -7.28121 h 3.63802 q 1.30225,0 2.01021,0.56327 0.70797,0.55811 0.70797,1.60714 0,0.76481 -0.43408,1.32291 -0.43408,0.55294 -1.17306,0.72864 l 1.96887,3.05925 z m -0.18087,-5.04879 q 0,-1.04903 -1.34359,-1.04903 h -1.95337 v 2.14974 h 1.99471 q 0.64079,0 0.97152,-0.28939 0.33073,-0.28939 0.33073,-0.81132 z"
             style="font-style:normal;font-variant:normal;font-weight:bold;font-stretch:normal;font-size:10.58333302px;font-family:'Liberation Sans';-inkscape-font-specification:'Liberation Sans Bold';fill:#003057;fill-opacity:1;stroke-width:0.21100345"
             id="path14728" />
          <path
             inkscape:connector-curvature="0"
             d="m 195.33769,133.80892 q -1.50378,0 -2.30477,-0.73381 -0.79581,-0.7338 -0.79581,-2.09806 v -4.55269 h 1.52445 v 4.43384 q 0,0.86299 0.40824,1.31258 0.41342,0.44441 1.20923,0.44441 0.81649,0 1.25574,-0.46508 0.43925,-0.47026 0.43925,-1.34359 v -4.38216 h 1.52445 v 4.47518 q 0,1.38492 -0.85782,2.14974 -0.85266,0.75964 -2.40296,0.75964 z"
             style="font-style:normal;font-variant:normal;font-weight:bold;font-stretch:normal;font-size:10.58333302px;font-family:'Liberation Sans';-inkscape-font-specification:'Liberation Sans Bold';fill:#003057;fill-opacity:1;stroke-width:0.21100345"
             id="path14730" />
        </g>
        <g
           aria-label="VALID FROM"
           style="font-style:normal;font-variant:normal;font-weight:bold;font-stretch:normal;font-size:9.87777805px;line-height:1.25;font-family:'Liberation Sans';-inkscape-font-specification:'Liberation Sans Bold';letter-spacing:0px;word-spacing:0px;opacity:1;fill:#003057;fill-opacity:1;stroke:none;stroke-width:0.21100345"
           id="text1513-5-5-5-4-3">
          <path
             inkscape:connector-curvature="0"
             d="m -11.410247,133.75983 h -1.545125 l -2.692342,-7.28121 h 1.591634 l 1.498616,4.67671 q 0.139527,0.45476 0.382406,1.3746 l 0.10852,-0.44442 0.26355,-0.93018 1.493449,-4.67671 h 1.5761311 z"
             style="font-style:normal;font-variant:normal;font-weight:bold;font-stretch:normal;font-size:10.58333302px;font-family:'Liberation Sans';-inkscape-font-specification:'Liberation Sans Bold';fill:#003057;fill-opacity:1;stroke-width:0.21100345"
             id="path14733" />
          <path
             inkscape:connector-curvature="0"
             d="m -3.5916031,133.75983 -0.6459554,-1.86035 h -2.7750244 l -0.6459553,1.86035 h -1.5244547 l 2.6561685,-7.28121 h 1.7983398 l 2.6458332,7.28121 z M -5.6276545,127.6 l -0.031006,0.11368 q -0.051676,0.18604 -0.1240234,0.42375 -0.072347,0.23771 -0.8888346,2.61483 h 2.0928954 l -0.7183024,-2.0929 -0.2222086,-0.7028 z"
             style="font-style:normal;font-variant:normal;font-weight:bold;font-stretch:normal;font-size:10.58333302px;font-family:'Liberation Sans';-inkscape-font-specification:'Liberation Sans Bold';fill:#003057;fill-opacity:1;stroke-width:0.21100345"
             id="path14735" />
          <path
             inkscape:connector-curvature="0"
             d="m -1.0956313,133.75983 v -7.28121 h 1.5244547 v 6.10298 h 3.9067382 v 1.17823 z"
             style="font-style:normal;font-variant:normal;font-weight:bold;font-stretch:normal;font-size:10.58333302px;font-family:'Liberation Sans';-inkscape-font-specification:'Liberation Sans Bold';fill:#003057;fill-opacity:1;stroke-width:0.21100345"
             id="path14737" />
          <path
             inkscape:connector-curvature="0"
             d="m 5.3690894,133.75983 v -7.28121 h 1.5244547 v 7.28121 z"
             style="font-style:normal;font-variant:normal;font-weight:bold;font-stretch:normal;font-size:10.58333302px;font-family:'Liberation Sans';-inkscape-font-specification:'Liberation Sans Bold';fill:#003057;fill-opacity:1;stroke-width:0.21100345"
             id="path14739" />
          <path
             inkscape:connector-curvature="0"
             d="m 14.800039,130.06496 q 0,1.12655 -0.444418,1.96887 -0.439249,0.83716 -1.250569,1.28158 -0.806152,0.44442 -1.850016,0.44442 H 8.3094791 v -7.28121 h 2.6354979 q 1.839681,0 2.847371,0.93017 1.007691,0.92501 1.007691,2.65617 z m -1.53479,0 q 0,-1.17305 -0.609782,-1.788 -0.609782,-0.62012 -1.741496,-0.62012 H 9.8339338 v 4.92476 h 1.2919112 q 0.981852,0 1.560628,-0.67696 0.578776,-0.67696 0.578776,-1.83968 z"
             style="font-style:normal;font-variant:normal;font-weight:bold;font-stretch:normal;font-size:10.58333302px;font-family:'Liberation Sans';-inkscape-font-specification:'Liberation Sans Bold';fill:#003057;fill-opacity:1;stroke-width:0.21100345"
             id="path14741" />
          <path
             inkscape:connector-curvature="0"
             d="m 20.417268,127.65684 v 2.25309 h 3.72587 v 1.17823 h -3.72587 v 2.67167 h -1.524455 v -7.28121 h 5.369181 v 1.17822 z"
             style="font-style:normal;font-variant:normal;font-weight:bold;font-stretch:normal;font-size:10.58333302px;font-family:'Liberation Sans';-inkscape-font-specification:'Liberation Sans Bold';fill:#003057;fill-opacity:1;stroke-width:0.21100345"
             id="path14743" />
          <path
             inkscape:connector-curvature="0"
             d="m 30.359813,133.75983 -1.689819,-2.76469 h -1.788005 v 2.76469 h -1.524454 v -7.28121 h 3.63802 q 1.302246,0 2.010214,0.56327 0.707967,0.55811 0.707967,1.60714 0,0.76481 -0.434082,1.32291 -0.434082,0.55294 -1.173055,0.72864 l 1.968872,3.05925 z m -0.180867,-5.04879 q 0,-1.04903 -1.343588,-1.04903 h -1.953369 v 2.14974 H 28.8767 q 0.640787,0 0.971517,-0.28939 0.330729,-0.28939 0.330729,-0.81132 z"
             style="font-style:normal;font-variant:normal;font-weight:bold;font-stretch:normal;font-size:10.58333302px;font-family:'Liberation Sans';-inkscape-font-specification:'Liberation Sans Bold';fill:#003057;fill-opacity:1;stroke-width:0.21100345"
             id="path14745" />
          <path
             inkscape:connector-curvature="0"
             d="m 40.08015,130.08563 q 0,1.13688 -0.449585,1.99988 -0.449585,0.863 -1.286743,1.32292 -0.837158,0.45475 -1.953369,0.45475 -1.715658,0 -2.692342,-1.00769 -0.971517,-1.01286 -0.971517,-2.76986 0,-1.75183 0.971517,-2.73368 0.971517,-0.98185 2.702677,-0.98185 1.731161,0 2.702678,0.99218 0.976684,0.99219 0.976684,2.72335 z m -1.555461,0 q 0,-1.17822 -0.558105,-1.84485 -0.558105,-0.67179 -1.565796,-0.67179 -1.023193,0 -1.581299,0.66663 -0.558105,0.66145 -0.558105,1.85001 0,1.1989 0.568441,1.89136 0.573608,0.6873 1.560628,0.6873 1.023193,0 1.576131,-0.6718 0.558105,-0.67179 0.558105,-1.90686 z"
             style="font-style:normal;font-variant:normal;font-weight:bold;font-stretch:normal;font-size:10.58333302px;font-family:'Liberation Sans';-inkscape-font-specification:'Liberation Sans Bold';fill:#003057;fill-opacity:1;stroke-width:0.21100345"
             id="path14747" />
          <path
             inkscape:connector-curvature="0"
             d="m 47.278677,133.75983 v -4.41317 q 0,-0.14986 0,-0.29972 0.0052,-0.14987 0.05168,-1.28675 -0.366903,1.3901 -0.542603,1.93787 l -1.312581,4.06177 h -1.085205 l -1.312582,-4.06177 -0.552938,-1.93787 q 0.06201,1.1989 0.06201,1.58647 v 4.41317 h -1.353922 v -7.28121 h 2.041219 l 1.302246,4.0721 0.113688,0.39274 0.248047,0.97669 0.325561,-1.16789 1.33842,-4.27364 H 48.6326 v 7.28121 z"
             style="font-style:normal;font-variant:normal;font-weight:bold;font-stretch:normal;font-size:10.58333302px;font-family:'Liberation Sans';-inkscape-font-specification:'Liberation Sans Bold';fill:#003057;fill-opacity:1;stroke-width:0.21100345"
             id="path14749" />
        </g>
      </g>
    </g>
  </g>
</svg>
